G04 EAGLE Gerber RS-274X export*
G75*
%MOMM*%
%FSLAX34Y34*%
%LPD*%
%INSoldermask Top*%
%IPPOS*%
%AMOC8*
5,1,8,0,0,1.08239X$1,22.5*%
G01*
%ADD10C,3.377000*%
%ADD11R,1.117600X0.431800*%
%ADD12R,1.397000X0.762000*%
%ADD13P,1.761049X8X22.500000*%
%ADD14R,1.930000X1.727000*%
%ADD15C,2.077000*%
%ADD16P,1.761049X8X202.500000*%
%ADD17P,1.685281X8X22.500000*%
%ADD18C,1.651000*%
%ADD19C,2.057400*%
%ADD20R,0.762000X1.397000*%
%ADD21P,1.685281X8X112.500000*%
%ADD22P,1.685281X8X292.500000*%
%ADD23P,1.787026X8X292.500000*%
%ADD24R,0.577000X1.527000*%
%ADD25R,2.687000X2.587000*%
%ADD26C,0.627000*%
%ADD27P,1.869504X8X112.500000*%
%ADD28C,1.727200*%
%ADD29P,1.869504X8X292.500000*%


D10*
X50000Y350000D03*
X50000Y50000D03*
X650000Y50000D03*
X650000Y350000D03*
D11*
X320822Y262250D03*
X320822Y255750D03*
X320822Y249250D03*
X320822Y242750D03*
X320822Y236250D03*
X320822Y229750D03*
X320822Y223250D03*
X320822Y216750D03*
X320822Y210250D03*
X320822Y203750D03*
X320822Y197250D03*
X320822Y190750D03*
X320822Y184250D03*
X320822Y177750D03*
X379178Y177750D03*
X379178Y184250D03*
X379178Y190750D03*
X379178Y197250D03*
X379178Y203750D03*
X379178Y210250D03*
X379178Y216750D03*
X379178Y223250D03*
X379178Y229750D03*
X379178Y236250D03*
X379178Y242750D03*
X379178Y249250D03*
X379178Y255750D03*
X379178Y262250D03*
D12*
X300000Y124064D03*
X300000Y115936D03*
X327000Y124064D03*
X327000Y115936D03*
D13*
X288600Y148000D03*
X339400Y148000D03*
D14*
X360000Y119220D03*
X360000Y90780D03*
D15*
X670000Y287500D03*
X670000Y252500D03*
X670000Y217500D03*
X670000Y182500D03*
X217500Y30000D03*
X182500Y30000D03*
X317500Y30000D03*
X282500Y30000D03*
X417500Y30000D03*
X382500Y30000D03*
X517500Y30000D03*
X482500Y30000D03*
D14*
X390000Y119220D03*
X390000Y90780D03*
D16*
X175400Y150000D03*
X124600Y150000D03*
D17*
X99200Y120000D03*
X200800Y120000D03*
D18*
X152220Y265400D02*
X136980Y265400D01*
X136980Y240000D02*
X152220Y240000D01*
X152220Y214600D02*
X136980Y214600D01*
D19*
X190000Y290800D03*
X190000Y189200D03*
D20*
X304064Y275000D03*
X295936Y275000D03*
X304064Y298000D03*
X295936Y298000D03*
D16*
X375400Y283000D03*
X324600Y283000D03*
D21*
X110000Y189200D03*
X110000Y290800D03*
D22*
X250000Y290800D03*
X250000Y189200D03*
X220000Y290800D03*
X220000Y189200D03*
D15*
X30000Y252500D03*
X30000Y287500D03*
X30000Y182500D03*
X30000Y217500D03*
D23*
X187300Y375400D03*
X212700Y375400D03*
X187300Y350000D03*
X212700Y350000D03*
X187300Y324600D03*
X212700Y324600D03*
X287300Y375400D03*
X312700Y375400D03*
X287300Y350000D03*
X312700Y350000D03*
X287300Y324600D03*
X312700Y324600D03*
X387300Y375400D03*
X412700Y375400D03*
X387300Y350000D03*
X412700Y350000D03*
X387300Y324600D03*
X412700Y324600D03*
X487300Y375400D03*
X512700Y375400D03*
X487300Y350000D03*
X512700Y350000D03*
X487300Y324600D03*
X512700Y324600D03*
D24*
X227250Y90500D03*
X233750Y90500D03*
X240250Y90500D03*
X246750Y90500D03*
X253250Y90500D03*
X259750Y90500D03*
X266250Y90500D03*
X272750Y90500D03*
X272750Y149500D03*
X266250Y149500D03*
X259750Y149500D03*
X253250Y149500D03*
X246750Y149500D03*
X240250Y149500D03*
X233750Y149500D03*
X227250Y149500D03*
D25*
X250000Y120000D03*
D26*
X255500Y125500D03*
D27*
X283000Y195700D03*
D28*
X283000Y170300D03*
D12*
X570000Y115936D03*
X570000Y124064D03*
X530000Y115936D03*
X530000Y124064D03*
D16*
X565400Y190000D03*
X514600Y190000D03*
D14*
X650000Y105780D03*
X650000Y134220D03*
X610000Y134220D03*
X610000Y105780D03*
D16*
X411400Y148000D03*
X360600Y148000D03*
D17*
X499200Y160000D03*
X600800Y160000D03*
D24*
X427250Y90500D03*
X433750Y90500D03*
X440250Y90500D03*
X446750Y90500D03*
X453250Y90500D03*
X459750Y90500D03*
X466250Y90500D03*
X472750Y90500D03*
X472750Y149500D03*
X466250Y149500D03*
X459750Y149500D03*
X453250Y149500D03*
X446750Y149500D03*
X440250Y149500D03*
X433750Y149500D03*
X427250Y149500D03*
D25*
X450000Y120000D03*
D26*
X455500Y125500D03*
D27*
X463000Y199700D03*
D28*
X463000Y174300D03*
D29*
X130000Y324300D03*
D28*
X130000Y349700D03*
D29*
X570000Y324300D03*
D28*
X570000Y349700D03*
M02*
