G04 EAGLE Gerber RS-274X export*
G75*
%MOMM*%
%FSLAX34Y34*%
%LPD*%
%INSolderpaste Top*%
%IPPOS*%
%AMOC8*
5,1,8,0,0,1.08239X$1,22.5*%
G01*
%ADD10R,0.990600X0.304800*%
%ADD11R,1.803000X1.600000*%
%ADD12R,0.450000X1.400000*%
%ADD13R,2.560000X2.460000*%
%ADD14C,0.500000*%


D10*
X320822Y262250D03*
X320822Y255750D03*
X320822Y249250D03*
X320822Y242750D03*
X320822Y236250D03*
X320822Y229750D03*
X320822Y223250D03*
X320822Y216750D03*
X320822Y210250D03*
X320822Y203750D03*
X320822Y197250D03*
X320822Y190750D03*
X320822Y184250D03*
X320822Y177750D03*
X379178Y177750D03*
X379178Y184250D03*
X379178Y190750D03*
X379178Y197250D03*
X379178Y203750D03*
X379178Y210250D03*
X379178Y216750D03*
X379178Y223250D03*
X379178Y229750D03*
X379178Y236250D03*
X379178Y242750D03*
X379178Y249250D03*
X379178Y255750D03*
X379178Y262250D03*
D11*
X360000Y119220D03*
X360000Y90780D03*
X390000Y119220D03*
X390000Y90780D03*
D12*
X227250Y90500D03*
X233750Y90500D03*
X240250Y90500D03*
X246750Y90500D03*
X253250Y90500D03*
X259750Y90500D03*
X266250Y90500D03*
X272750Y90500D03*
X272750Y149500D03*
X266250Y149500D03*
X259750Y149500D03*
X253250Y149500D03*
X246750Y149500D03*
X240250Y149500D03*
X233750Y149500D03*
X227250Y149500D03*
D13*
X250000Y120000D03*
D14*
X255500Y125500D03*
D11*
X650000Y105780D03*
X650000Y134220D03*
X610000Y134220D03*
X610000Y105780D03*
D12*
X427250Y90500D03*
X433750Y90500D03*
X440250Y90500D03*
X446750Y90500D03*
X453250Y90500D03*
X459750Y90500D03*
X466250Y90500D03*
X472750Y90500D03*
X472750Y149500D03*
X466250Y149500D03*
X459750Y149500D03*
X453250Y149500D03*
X446750Y149500D03*
X440250Y149500D03*
X433750Y149500D03*
X427250Y149500D03*
D13*
X450000Y120000D03*
D14*
X455500Y125500D03*
M02*
