G04 EAGLE Gerber RS-274X export*
G75*
%MOMM*%
%FSLAX34Y34*%
%LPD*%
%INBottom Copper*%
%IPPOS*%
%AMOC8*
5,1,8,0,0,1.08239X$1,22.5*%
G01*
%ADD10P,1.623585X8X22.500000*%
%ADD11C,1.950000*%
%ADD12P,1.623585X8X202.500000*%
%ADD13P,1.547818X8X22.500000*%
%ADD14C,1.524000*%
%ADD15C,1.930400*%
%ADD16P,1.547818X8X112.500000*%
%ADD17P,1.547818X8X292.500000*%
%ADD18P,1.649562X8X292.500000*%
%ADD19P,1.732040X8X112.500000*%
%ADD20C,1.600200*%
%ADD21P,1.732040X8X292.500000*%
%ADD22C,0.762000*%
%ADD23C,0.750000*%
%ADD24C,0.304800*%
%ADD25C,0.508000*%

G36*
X668337Y2809D02*
X668337Y2809D01*
X668463Y2816D01*
X668510Y2829D01*
X668558Y2835D01*
X668677Y2877D01*
X668798Y2912D01*
X668840Y2936D01*
X668886Y2952D01*
X668992Y3021D01*
X669102Y3082D01*
X669149Y3122D01*
X669179Y3141D01*
X669212Y3176D01*
X669289Y3241D01*
X696759Y30711D01*
X696829Y30800D01*
X696839Y30810D01*
X696843Y30816D01*
X696922Y30904D01*
X696946Y30947D01*
X696976Y30984D01*
X697030Y31099D01*
X697091Y31209D01*
X697104Y31256D01*
X697125Y31300D01*
X697151Y31423D01*
X697186Y31545D01*
X697191Y31606D01*
X697198Y31640D01*
X697197Y31688D01*
X697205Y31789D01*
X697205Y368211D01*
X697191Y368337D01*
X697184Y368463D01*
X697171Y368510D01*
X697165Y368558D01*
X697123Y368677D01*
X697088Y368798D01*
X697064Y368840D01*
X697048Y368886D01*
X696979Y368992D01*
X696918Y369102D01*
X696878Y369149D01*
X696859Y369179D01*
X696824Y369212D01*
X696759Y369289D01*
X669289Y396759D01*
X669190Y396838D01*
X669096Y396922D01*
X669053Y396946D01*
X669016Y396976D01*
X668901Y397030D01*
X668791Y397091D01*
X668744Y397104D01*
X668700Y397125D01*
X668577Y397151D01*
X668455Y397186D01*
X668394Y397191D01*
X668360Y397198D01*
X668312Y397197D01*
X668211Y397205D01*
X31789Y397205D01*
X31663Y397191D01*
X31537Y397184D01*
X31490Y397171D01*
X31442Y397165D01*
X31323Y397123D01*
X31202Y397088D01*
X31160Y397064D01*
X31114Y397048D01*
X31008Y396979D01*
X30898Y396918D01*
X30851Y396878D01*
X30821Y396859D01*
X30788Y396824D01*
X30711Y396759D01*
X3241Y369289D01*
X3162Y369190D01*
X3078Y369096D01*
X3054Y369053D01*
X3024Y369016D01*
X2970Y368901D01*
X2909Y368791D01*
X2896Y368744D01*
X2875Y368700D01*
X2849Y368577D01*
X2814Y368455D01*
X2809Y368394D01*
X2802Y368360D01*
X2803Y368312D01*
X2795Y368211D01*
X2795Y31789D01*
X2809Y31663D01*
X2816Y31537D01*
X2829Y31490D01*
X2835Y31442D01*
X2877Y31323D01*
X2912Y31202D01*
X2936Y31160D01*
X2952Y31114D01*
X3021Y31008D01*
X3082Y30898D01*
X3122Y30851D01*
X3141Y30821D01*
X3176Y30788D01*
X3241Y30711D01*
X30711Y3241D01*
X30810Y3162D01*
X30904Y3078D01*
X30947Y3054D01*
X30984Y3024D01*
X31099Y2970D01*
X31209Y2909D01*
X31256Y2896D01*
X31300Y2875D01*
X31423Y2849D01*
X31545Y2814D01*
X31606Y2809D01*
X31640Y2802D01*
X31688Y2803D01*
X31789Y2795D01*
X668211Y2795D01*
X668337Y2809D01*
G37*
%LPC*%
G36*
X219951Y131725D02*
X219951Y131725D01*
X218012Y132528D01*
X216528Y134012D01*
X215725Y135951D01*
X215725Y138049D01*
X216528Y139988D01*
X218012Y141472D01*
X219427Y142058D01*
X219429Y142059D01*
X219431Y142059D01*
X219581Y142143D01*
X219732Y142227D01*
X219733Y142228D01*
X219735Y142229D01*
X219921Y142388D01*
X221981Y144448D01*
X222060Y144547D01*
X222144Y144641D01*
X222168Y144683D01*
X222198Y144721D01*
X222252Y144835D01*
X222313Y144946D01*
X222326Y144992D01*
X222347Y145036D01*
X222373Y145159D01*
X222408Y145281D01*
X222413Y145342D01*
X222420Y145377D01*
X222419Y145425D01*
X222427Y145525D01*
X222427Y162910D01*
X223123Y164590D01*
X227981Y169448D01*
X228060Y169547D01*
X228144Y169641D01*
X228168Y169683D01*
X228198Y169721D01*
X228252Y169835D01*
X228313Y169946D01*
X228326Y169992D01*
X228347Y170036D01*
X228373Y170159D01*
X228408Y170281D01*
X228413Y170342D01*
X228420Y170377D01*
X228419Y170425D01*
X228427Y170525D01*
X228427Y181682D01*
X228416Y181782D01*
X228414Y181882D01*
X228396Y181954D01*
X228387Y182028D01*
X228354Y182123D01*
X228329Y182220D01*
X228295Y182286D01*
X228270Y182356D01*
X228215Y182441D01*
X228169Y182530D01*
X228121Y182587D01*
X228081Y182649D01*
X228009Y182719D01*
X227944Y182795D01*
X227884Y182839D01*
X227830Y182891D01*
X227744Y182943D01*
X227663Y183002D01*
X227595Y183032D01*
X227531Y183070D01*
X227435Y183101D01*
X227343Y183140D01*
X227270Y183154D01*
X227199Y183176D01*
X227099Y183184D01*
X227000Y183202D01*
X226926Y183198D01*
X226852Y183204D01*
X226752Y183189D01*
X226652Y183184D01*
X226581Y183164D01*
X226507Y183153D01*
X226414Y183116D01*
X226317Y183088D01*
X226252Y183051D01*
X226183Y183024D01*
X226101Y182967D01*
X226013Y182918D01*
X225937Y182852D01*
X225897Y182825D01*
X225873Y182798D01*
X225827Y182759D01*
X223593Y180525D01*
X216407Y180525D01*
X211325Y185607D01*
X211325Y192793D01*
X216407Y197875D01*
X223593Y197875D01*
X225827Y195641D01*
X225905Y195579D01*
X225978Y195509D01*
X226042Y195471D01*
X226100Y195424D01*
X226191Y195381D01*
X226277Y195330D01*
X226348Y195307D01*
X226415Y195275D01*
X226513Y195254D01*
X226609Y195224D01*
X226683Y195218D01*
X226756Y195202D01*
X226856Y195204D01*
X226956Y195196D01*
X227030Y195207D01*
X227104Y195208D01*
X227201Y195233D01*
X227301Y195247D01*
X227370Y195275D01*
X227442Y195293D01*
X227531Y195339D01*
X227625Y195376D01*
X227686Y195419D01*
X227752Y195453D01*
X227828Y195518D01*
X227911Y195575D01*
X227961Y195630D01*
X228017Y195679D01*
X228077Y195759D01*
X228144Y195834D01*
X228180Y195899D01*
X228225Y195959D01*
X228264Y196051D01*
X228313Y196139D01*
X228333Y196211D01*
X228363Y196279D01*
X228380Y196378D01*
X228408Y196474D01*
X228416Y196574D01*
X228424Y196622D01*
X228422Y196658D01*
X228427Y196718D01*
X228427Y201910D01*
X229123Y203590D01*
X235612Y210079D01*
X235613Y210080D01*
X235615Y210082D01*
X235725Y210221D01*
X235829Y210352D01*
X235830Y210354D01*
X235831Y210355D01*
X235942Y210573D01*
X236528Y211988D01*
X238012Y213472D01*
X239951Y214275D01*
X242049Y214275D01*
X243988Y213472D01*
X245472Y211988D01*
X246275Y210049D01*
X246275Y208096D01*
X246278Y208070D01*
X246276Y208044D01*
X246298Y207897D01*
X246315Y207750D01*
X246323Y207725D01*
X246327Y207699D01*
X246382Y207561D01*
X246432Y207422D01*
X246446Y207400D01*
X246456Y207375D01*
X246541Y207254D01*
X246621Y207129D01*
X246640Y207111D01*
X246655Y207089D01*
X246765Y206990D01*
X246872Y206887D01*
X246894Y206873D01*
X246914Y206856D01*
X247044Y206784D01*
X247171Y206708D01*
X247196Y206700D01*
X247219Y206687D01*
X247362Y206647D01*
X247503Y206602D01*
X247529Y206600D01*
X247554Y206592D01*
X247798Y206573D01*
X249953Y206573D01*
X249955Y206573D01*
X249957Y206573D01*
X250128Y206593D01*
X250299Y206613D01*
X250301Y206613D01*
X250303Y206614D01*
X250536Y206689D01*
X251951Y207275D01*
X254049Y207275D01*
X255988Y206472D01*
X257319Y205140D01*
X257340Y205124D01*
X257357Y205104D01*
X257476Y205016D01*
X257592Y204924D01*
X257616Y204912D01*
X257637Y204897D01*
X257773Y204838D01*
X257907Y204775D01*
X257933Y204769D01*
X257957Y204759D01*
X258103Y204733D01*
X258248Y204701D01*
X258274Y204702D01*
X258300Y204697D01*
X258449Y204705D01*
X258597Y204707D01*
X258622Y204714D01*
X258648Y204715D01*
X258791Y204756D01*
X258935Y204792D01*
X258958Y204804D01*
X258983Y204812D01*
X259113Y204884D01*
X259244Y204952D01*
X259264Y204969D01*
X259287Y204982D01*
X259473Y205140D01*
X267210Y212877D01*
X268890Y213573D01*
X271142Y213573D01*
X271168Y213576D01*
X271194Y213574D01*
X271341Y213596D01*
X271488Y213613D01*
X271513Y213621D01*
X271539Y213625D01*
X271677Y213680D01*
X271816Y213730D01*
X271838Y213744D01*
X271863Y213754D01*
X271984Y213839D01*
X272109Y213919D01*
X272127Y213938D01*
X272149Y213953D01*
X272248Y214063D01*
X272351Y214170D01*
X272365Y214192D01*
X272382Y214212D01*
X272454Y214342D01*
X272530Y214469D01*
X272538Y214494D01*
X272551Y214517D01*
X272591Y214660D01*
X272636Y214801D01*
X272638Y214827D01*
X272646Y214852D01*
X272665Y215096D01*
X272665Y217061D01*
X273477Y219022D01*
X274978Y220523D01*
X276538Y221169D01*
X276540Y221170D01*
X276542Y221170D01*
X276692Y221254D01*
X276842Y221338D01*
X276844Y221339D01*
X276846Y221340D01*
X277032Y221499D01*
X290981Y235448D01*
X291060Y235547D01*
X291144Y235641D01*
X291168Y235683D01*
X291198Y235721D01*
X291252Y235835D01*
X291313Y235946D01*
X291326Y235992D01*
X291347Y236036D01*
X291373Y236159D01*
X291408Y236281D01*
X291413Y236342D01*
X291420Y236377D01*
X291419Y236425D01*
X291427Y236525D01*
X291427Y251796D01*
X291427Y251798D01*
X291427Y251800D01*
X291406Y251977D01*
X291387Y252142D01*
X291387Y252144D01*
X291386Y252146D01*
X291311Y252379D01*
X290665Y253939D01*
X290665Y256061D01*
X291477Y258022D01*
X292978Y259523D01*
X294939Y260335D01*
X297061Y260335D01*
X299022Y259523D01*
X300523Y258022D01*
X301335Y256061D01*
X301335Y253939D01*
X300689Y252379D01*
X300688Y252377D01*
X300687Y252375D01*
X300641Y252211D01*
X300593Y252044D01*
X300593Y252042D01*
X300592Y252040D01*
X300573Y251796D01*
X300573Y246858D01*
X300576Y246832D01*
X300574Y246806D01*
X300596Y246659D01*
X300613Y246512D01*
X300621Y246487D01*
X300625Y246461D01*
X300680Y246323D01*
X300730Y246184D01*
X300744Y246162D01*
X300754Y246137D01*
X300839Y246016D01*
X300919Y245891D01*
X300938Y245873D01*
X300953Y245851D01*
X301063Y245752D01*
X301170Y245649D01*
X301192Y245635D01*
X301212Y245618D01*
X301342Y245546D01*
X301469Y245470D01*
X301494Y245462D01*
X301517Y245449D01*
X301660Y245409D01*
X301801Y245364D01*
X301827Y245362D01*
X301852Y245354D01*
X302096Y245335D01*
X303919Y245335D01*
X305880Y244523D01*
X307381Y243022D01*
X308193Y241061D01*
X308193Y238939D01*
X307547Y237379D01*
X307546Y237377D01*
X307545Y237375D01*
X307499Y237214D01*
X307451Y237044D01*
X307451Y237042D01*
X307450Y237040D01*
X307431Y236796D01*
X307431Y229948D01*
X306735Y228268D01*
X287115Y208648D01*
X287098Y208627D01*
X287078Y208610D01*
X286990Y208491D01*
X286898Y208375D01*
X286887Y208351D01*
X286871Y208330D01*
X286812Y208194D01*
X286749Y208060D01*
X286744Y208034D01*
X286733Y208010D01*
X286707Y207864D01*
X286676Y207719D01*
X286676Y207693D01*
X286672Y207667D01*
X286679Y207518D01*
X286682Y207371D01*
X286688Y207345D01*
X286689Y207319D01*
X286731Y207176D01*
X286767Y207033D01*
X286779Y207009D01*
X286786Y206984D01*
X286858Y206855D01*
X286926Y206723D01*
X286943Y206703D01*
X286956Y206680D01*
X287115Y206494D01*
X293542Y200067D01*
X293542Y197731D01*
X283508Y197731D01*
X283482Y197728D01*
X283456Y197730D01*
X283309Y197708D01*
X283162Y197691D01*
X283137Y197683D01*
X283111Y197679D01*
X283004Y197636D01*
X282928Y197657D01*
X282787Y197702D01*
X282761Y197704D01*
X282736Y197712D01*
X282492Y197731D01*
X272458Y197731D01*
X272458Y200067D01*
X274219Y201827D01*
X274281Y201905D01*
X274351Y201978D01*
X274389Y202042D01*
X274435Y202100D01*
X274478Y202191D01*
X274530Y202277D01*
X274552Y202348D01*
X274584Y202415D01*
X274605Y202513D01*
X274636Y202609D01*
X274642Y202683D01*
X274658Y202756D01*
X274656Y202856D01*
X274664Y202956D01*
X274653Y203030D01*
X274652Y203104D01*
X274627Y203201D01*
X274612Y203301D01*
X274585Y203370D01*
X274567Y203442D01*
X274521Y203531D01*
X274484Y203625D01*
X274441Y203686D01*
X274407Y203752D01*
X274342Y203828D01*
X274285Y203911D01*
X274229Y203961D01*
X274181Y204017D01*
X274100Y204077D01*
X274026Y204144D01*
X273961Y204180D01*
X273901Y204225D01*
X273809Y204264D01*
X273721Y204313D01*
X273649Y204333D01*
X273581Y204363D01*
X273482Y204380D01*
X273385Y204408D01*
X273285Y204416D01*
X273238Y204424D01*
X273202Y204422D01*
X273142Y204427D01*
X272325Y204427D01*
X272199Y204413D01*
X272073Y204406D01*
X272027Y204393D01*
X271979Y204387D01*
X271860Y204345D01*
X271738Y204310D01*
X271696Y204286D01*
X271651Y204270D01*
X271544Y204201D01*
X271434Y204140D01*
X271388Y204100D01*
X271358Y204081D01*
X271324Y204046D01*
X271248Y203981D01*
X259121Y191854D01*
X259042Y191755D01*
X258958Y191661D01*
X258934Y191619D01*
X258904Y191581D01*
X258850Y191467D01*
X258789Y191356D01*
X258776Y191310D01*
X258755Y191266D01*
X258729Y191143D01*
X258694Y191021D01*
X258689Y190960D01*
X258682Y190925D01*
X258683Y190877D01*
X258675Y190777D01*
X258675Y185607D01*
X253593Y180525D01*
X245898Y180525D01*
X245872Y180522D01*
X245846Y180524D01*
X245699Y180502D01*
X245552Y180485D01*
X245527Y180477D01*
X245501Y180473D01*
X245363Y180418D01*
X245224Y180368D01*
X245202Y180354D01*
X245177Y180344D01*
X245056Y180259D01*
X244931Y180179D01*
X244913Y180160D01*
X244891Y180145D01*
X244792Y180035D01*
X244689Y179928D01*
X244675Y179906D01*
X244658Y179886D01*
X244586Y179756D01*
X244510Y179629D01*
X244502Y179604D01*
X244489Y179581D01*
X244449Y179438D01*
X244404Y179297D01*
X244402Y179271D01*
X244394Y179246D01*
X244375Y179002D01*
X244375Y142999D01*
X243679Y141318D01*
X238855Y136495D01*
X238854Y136494D01*
X238853Y136492D01*
X238743Y136353D01*
X238639Y136222D01*
X238638Y136220D01*
X238637Y136219D01*
X238525Y136001D01*
X237939Y134586D01*
X236455Y133102D01*
X234517Y132299D01*
X232418Y132299D01*
X230480Y133102D01*
X228996Y134586D01*
X228760Y135156D01*
X228711Y135243D01*
X228671Y135335D01*
X228627Y135395D01*
X228591Y135460D01*
X228523Y135535D01*
X228463Y135615D01*
X228407Y135663D01*
X228357Y135718D01*
X228274Y135775D01*
X228197Y135840D01*
X228131Y135874D01*
X228070Y135916D01*
X227976Y135953D01*
X227887Y135999D01*
X227815Y136017D01*
X227746Y136044D01*
X227646Y136059D01*
X227549Y136083D01*
X227475Y136084D01*
X227401Y136095D01*
X227301Y136087D01*
X227200Y136088D01*
X227128Y136072D01*
X227054Y136066D01*
X226958Y136035D01*
X226860Y136014D01*
X226793Y135982D01*
X226722Y135959D01*
X226636Y135907D01*
X226545Y135864D01*
X226487Y135818D01*
X226423Y135779D01*
X226351Y135710D01*
X226273Y135647D01*
X226227Y135588D01*
X226173Y135537D01*
X226119Y135452D01*
X226057Y135373D01*
X226011Y135284D01*
X225985Y135243D01*
X225973Y135210D01*
X225945Y135156D01*
X225472Y134012D01*
X223988Y132528D01*
X222049Y131725D01*
X219951Y131725D01*
G37*
%LPD*%
%LPC*%
G36*
X646379Y22499D02*
X646379Y22499D01*
X639385Y24373D01*
X633114Y27994D01*
X627994Y33114D01*
X624373Y39385D01*
X622499Y46379D01*
X622499Y53621D01*
X624373Y60615D01*
X627994Y66886D01*
X633114Y72006D01*
X639385Y75627D01*
X646379Y77501D01*
X653621Y77501D01*
X660615Y75627D01*
X666886Y72006D01*
X672006Y66886D01*
X675627Y60615D01*
X677501Y53621D01*
X677501Y46379D01*
X675627Y39385D01*
X672006Y33114D01*
X666886Y27994D01*
X660615Y24373D01*
X653621Y22499D01*
X646379Y22499D01*
G37*
%LPD*%
%LPC*%
G36*
X46379Y322499D02*
X46379Y322499D01*
X39385Y324373D01*
X33114Y327994D01*
X27994Y333114D01*
X24373Y339385D01*
X22499Y346379D01*
X22499Y353621D01*
X24373Y360615D01*
X27994Y366886D01*
X33114Y372006D01*
X39385Y375627D01*
X46379Y377501D01*
X53621Y377501D01*
X60615Y375627D01*
X66886Y372006D01*
X72006Y366886D01*
X75627Y360615D01*
X77501Y353621D01*
X77501Y346379D01*
X75627Y339385D01*
X72006Y333114D01*
X66886Y327994D01*
X60615Y324373D01*
X53621Y322499D01*
X46379Y322499D01*
G37*
%LPD*%
%LPC*%
G36*
X46379Y22499D02*
X46379Y22499D01*
X39385Y24373D01*
X33114Y27994D01*
X27994Y33114D01*
X24373Y39385D01*
X22499Y46379D01*
X22499Y53621D01*
X24373Y60615D01*
X27994Y66886D01*
X33114Y72006D01*
X39385Y75627D01*
X46379Y77501D01*
X53621Y77501D01*
X60615Y75627D01*
X66886Y72006D01*
X72006Y66886D01*
X75627Y60615D01*
X77501Y53621D01*
X77501Y46379D01*
X75627Y39385D01*
X72006Y33114D01*
X66886Y27994D01*
X60615Y24373D01*
X53621Y22499D01*
X46379Y22499D01*
G37*
%LPD*%
%LPC*%
G36*
X646379Y322499D02*
X646379Y322499D01*
X639385Y324373D01*
X633114Y327994D01*
X627994Y333114D01*
X624373Y339385D01*
X622499Y346379D01*
X622499Y353621D01*
X624373Y360615D01*
X627994Y366886D01*
X633114Y372006D01*
X639385Y375627D01*
X646379Y377501D01*
X653621Y377501D01*
X660615Y375627D01*
X666886Y372006D01*
X672006Y366886D01*
X675627Y360615D01*
X677501Y353621D01*
X677501Y346379D01*
X675627Y339385D01*
X672006Y333114D01*
X666886Y327994D01*
X660615Y324373D01*
X653621Y322499D01*
X646379Y322499D01*
G37*
%LPD*%
%LPC*%
G36*
X266483Y131299D02*
X266483Y131299D01*
X264545Y132102D01*
X263061Y133586D01*
X262258Y135525D01*
X262258Y137623D01*
X262311Y137752D01*
X262312Y137754D01*
X262313Y137756D01*
X262360Y137923D01*
X262407Y138088D01*
X262407Y138090D01*
X262408Y138092D01*
X262427Y138335D01*
X262427Y171910D01*
X263123Y173590D01*
X264624Y175091D01*
X275585Y186052D01*
X275602Y186073D01*
X275622Y186090D01*
X275668Y186153D01*
X275696Y186182D01*
X275721Y186223D01*
X275802Y186325D01*
X275813Y186349D01*
X275829Y186370D01*
X275887Y186506D01*
X275951Y186640D01*
X275956Y186666D01*
X275967Y186690D01*
X275993Y186836D01*
X276024Y186981D01*
X276024Y187007D01*
X276028Y187033D01*
X276021Y187182D01*
X276018Y187329D01*
X276012Y187355D01*
X276011Y187381D01*
X275970Y187523D01*
X275933Y187667D01*
X275921Y187691D01*
X275914Y187716D01*
X275842Y187845D01*
X275774Y187977D01*
X275757Y187997D01*
X275744Y188020D01*
X275585Y188206D01*
X272458Y191333D01*
X272458Y193669D01*
X282492Y193669D01*
X282518Y193672D01*
X282544Y193670D01*
X282691Y193692D01*
X282838Y193709D01*
X282863Y193717D01*
X282889Y193721D01*
X282996Y193764D01*
X283072Y193743D01*
X283213Y193698D01*
X283239Y193695D01*
X283264Y193688D01*
X283508Y193669D01*
X293542Y193669D01*
X293542Y191333D01*
X292477Y190269D01*
X292415Y190190D01*
X292345Y190118D01*
X292307Y190054D01*
X292261Y189996D01*
X292218Y189905D01*
X292166Y189819D01*
X292144Y189748D01*
X292112Y189681D01*
X292091Y189583D01*
X292060Y189487D01*
X292054Y189413D01*
X292038Y189340D01*
X292040Y189240D01*
X292032Y189140D01*
X292043Y189066D01*
X292044Y188992D01*
X292069Y188895D01*
X292084Y188795D01*
X292111Y188726D01*
X292129Y188654D01*
X292175Y188565D01*
X292212Y188471D01*
X292255Y188410D01*
X292289Y188344D01*
X292354Y188268D01*
X292411Y188185D01*
X292467Y188135D01*
X292515Y188079D01*
X292596Y188019D01*
X292670Y187952D01*
X292735Y187916D01*
X292795Y187871D01*
X292887Y187832D01*
X292975Y187783D01*
X293047Y187763D01*
X293115Y187733D01*
X293214Y187716D01*
X293311Y187688D01*
X293411Y187680D01*
X293458Y187672D01*
X293494Y187674D01*
X293554Y187669D01*
X301195Y187669D01*
X301321Y187683D01*
X301447Y187690D01*
X301493Y187703D01*
X301541Y187709D01*
X301660Y187751D01*
X301782Y187786D01*
X301824Y187810D01*
X301869Y187826D01*
X301976Y187895D01*
X302086Y187956D01*
X302132Y187996D01*
X302162Y188015D01*
X302196Y188050D01*
X302272Y188115D01*
X303236Y189079D01*
X303237Y189080D01*
X303239Y189082D01*
X303300Y189159D01*
X303367Y189228D01*
X303404Y189291D01*
X303453Y189352D01*
X303454Y189354D01*
X303455Y189355D01*
X303527Y189496D01*
X303546Y189527D01*
X303550Y189542D01*
X303566Y189573D01*
X304152Y190988D01*
X305636Y192472D01*
X307575Y193275D01*
X309673Y193275D01*
X311612Y192472D01*
X313096Y190988D01*
X313899Y189049D01*
X313899Y186951D01*
X313096Y185012D01*
X311849Y183765D01*
X311832Y183745D01*
X311812Y183728D01*
X311724Y183608D01*
X311632Y183492D01*
X311621Y183468D01*
X311605Y183447D01*
X311547Y183311D01*
X311483Y183177D01*
X311478Y183151D01*
X311467Y183127D01*
X311441Y182981D01*
X311410Y182836D01*
X311410Y182810D01*
X311406Y182784D01*
X311413Y182636D01*
X311416Y182488D01*
X311422Y182462D01*
X311424Y182436D01*
X311465Y182294D01*
X311501Y182150D01*
X311513Y182127D01*
X311520Y182101D01*
X311592Y181972D01*
X311660Y181840D01*
X311677Y181820D01*
X311690Y181797D01*
X311849Y181611D01*
X313472Y179988D01*
X314275Y178049D01*
X314275Y175951D01*
X313472Y174012D01*
X311988Y172528D01*
X310049Y171725D01*
X309823Y171725D01*
X309697Y171711D01*
X309571Y171704D01*
X309525Y171691D01*
X309477Y171685D01*
X309358Y171643D01*
X309236Y171608D01*
X309194Y171584D01*
X309149Y171568D01*
X309042Y171499D01*
X308932Y171438D01*
X308886Y171398D01*
X308856Y171379D01*
X308822Y171344D01*
X308746Y171279D01*
X294492Y157025D01*
X294476Y157005D01*
X294456Y156988D01*
X294367Y156868D01*
X294275Y156752D01*
X294264Y156728D01*
X294249Y156707D01*
X294190Y156571D01*
X294126Y156437D01*
X294121Y156411D01*
X294111Y156387D01*
X294084Y156241D01*
X294053Y156096D01*
X294053Y156070D01*
X294049Y156044D01*
X294056Y155896D01*
X294059Y155748D01*
X294065Y155722D01*
X294067Y155696D01*
X294108Y155554D01*
X294144Y155410D01*
X294156Y155387D01*
X294163Y155361D01*
X294236Y155232D01*
X294304Y155100D01*
X294321Y155080D01*
X294333Y155057D01*
X294492Y154871D01*
X297625Y151738D01*
X297625Y144262D01*
X292338Y138975D01*
X284798Y138975D01*
X284772Y138972D01*
X284746Y138974D01*
X284599Y138952D01*
X284452Y138935D01*
X284427Y138927D01*
X284401Y138923D01*
X284263Y138868D01*
X284124Y138818D01*
X284102Y138804D01*
X284077Y138794D01*
X283956Y138709D01*
X283831Y138629D01*
X283813Y138610D01*
X283791Y138595D01*
X283692Y138485D01*
X283589Y138378D01*
X283575Y138356D01*
X283558Y138336D01*
X283486Y138206D01*
X283410Y138079D01*
X283402Y138054D01*
X283389Y138031D01*
X283349Y137888D01*
X283304Y137747D01*
X283302Y137721D01*
X283294Y137696D01*
X283275Y137452D01*
X283275Y135951D01*
X282472Y134012D01*
X280988Y132528D01*
X279049Y131725D01*
X276951Y131725D01*
X275012Y132528D01*
X274056Y133484D01*
X274036Y133500D01*
X274019Y133520D01*
X273900Y133608D01*
X273783Y133701D01*
X273760Y133712D01*
X273739Y133727D01*
X273602Y133786D01*
X273468Y133850D01*
X273443Y133855D01*
X273419Y133865D01*
X273272Y133892D01*
X273128Y133923D01*
X273101Y133923D01*
X273076Y133927D01*
X272927Y133920D01*
X272779Y133917D01*
X272754Y133911D01*
X272727Y133909D01*
X272585Y133868D01*
X272441Y133832D01*
X272418Y133820D01*
X272393Y133813D01*
X272263Y133740D01*
X272131Y133672D01*
X272111Y133655D01*
X272088Y133643D01*
X271902Y133484D01*
X270520Y132102D01*
X268582Y131299D01*
X266483Y131299D01*
G37*
%LPD*%
%LPC*%
G36*
X432951Y59725D02*
X432951Y59725D01*
X431012Y60528D01*
X429528Y62012D01*
X428725Y63951D01*
X428725Y66049D01*
X429528Y67988D01*
X431012Y69472D01*
X432427Y70058D01*
X432429Y70059D01*
X432431Y70059D01*
X432581Y70143D01*
X432732Y70227D01*
X432733Y70228D01*
X432735Y70229D01*
X432921Y70388D01*
X434981Y72448D01*
X435060Y72547D01*
X435144Y72641D01*
X435168Y72683D01*
X435198Y72721D01*
X435252Y72835D01*
X435313Y72946D01*
X435326Y72992D01*
X435347Y73036D01*
X435373Y73159D01*
X435408Y73281D01*
X435413Y73342D01*
X435420Y73377D01*
X435419Y73425D01*
X435427Y73525D01*
X435427Y86910D01*
X436123Y88590D01*
X437624Y90091D01*
X454612Y107079D01*
X456292Y107775D01*
X460291Y107775D01*
X460416Y107789D01*
X460543Y107796D01*
X460589Y107809D01*
X460637Y107815D01*
X460756Y107857D01*
X460877Y107892D01*
X460920Y107916D01*
X460965Y107932D01*
X461071Y108001D01*
X461182Y108062D01*
X461228Y108102D01*
X461258Y108121D01*
X461291Y108156D01*
X461368Y108221D01*
X462168Y109021D01*
X463848Y109717D01*
X480796Y109717D01*
X480798Y109717D01*
X480800Y109717D01*
X480976Y109737D01*
X481142Y109757D01*
X481144Y109757D01*
X481146Y109758D01*
X481379Y109833D01*
X482939Y110479D01*
X485061Y110479D01*
X487022Y109667D01*
X488523Y108166D01*
X489335Y106205D01*
X489335Y104083D01*
X488523Y102122D01*
X488050Y101649D01*
X488033Y101629D01*
X488013Y101612D01*
X487925Y101492D01*
X487833Y101376D01*
X487822Y101352D01*
X487806Y101331D01*
X487747Y101195D01*
X487684Y101061D01*
X487678Y101035D01*
X487668Y101011D01*
X487642Y100865D01*
X487611Y100720D01*
X487611Y100694D01*
X487606Y100668D01*
X487614Y100520D01*
X487617Y100372D01*
X487623Y100346D01*
X487624Y100320D01*
X487665Y100178D01*
X487702Y100034D01*
X487714Y100010D01*
X487721Y99985D01*
X487793Y99856D01*
X487861Y99724D01*
X487878Y99704D01*
X487891Y99681D01*
X488050Y99495D01*
X488523Y99022D01*
X489335Y97061D01*
X489335Y94939D01*
X488523Y92978D01*
X487022Y91477D01*
X485061Y90665D01*
X482939Y90665D01*
X481379Y91311D01*
X481377Y91312D01*
X481375Y91313D01*
X481214Y91359D01*
X481044Y91407D01*
X481042Y91407D01*
X481040Y91408D01*
X480796Y91427D01*
X471525Y91427D01*
X471399Y91413D01*
X471273Y91406D01*
X471227Y91393D01*
X471179Y91387D01*
X471060Y91345D01*
X470938Y91310D01*
X470896Y91286D01*
X470851Y91270D01*
X470744Y91201D01*
X470634Y91140D01*
X470588Y91100D01*
X470558Y91081D01*
X470524Y91046D01*
X470448Y90981D01*
X465019Y85552D01*
X464940Y85453D01*
X464856Y85359D01*
X464832Y85317D01*
X464802Y85279D01*
X464748Y85165D01*
X464687Y85054D01*
X464674Y85008D01*
X464653Y84964D01*
X464627Y84841D01*
X464592Y84719D01*
X464587Y84658D01*
X464580Y84623D01*
X464581Y84575D01*
X464573Y84475D01*
X464573Y73076D01*
X464581Y73000D01*
X464580Y72923D01*
X464601Y72827D01*
X464613Y72729D01*
X464638Y72658D01*
X464655Y72583D01*
X464697Y72494D01*
X464730Y72401D01*
X464772Y72337D01*
X464804Y72268D01*
X464866Y72191D01*
X464919Y72109D01*
X464974Y72055D01*
X465022Y71996D01*
X465099Y71935D01*
X465170Y71866D01*
X465235Y71827D01*
X465295Y71780D01*
X465428Y71712D01*
X465469Y71688D01*
X465487Y71682D01*
X465513Y71668D01*
X465988Y71472D01*
X467472Y69988D01*
X468275Y68049D01*
X468275Y65951D01*
X467472Y64012D01*
X465988Y62528D01*
X464049Y61725D01*
X461951Y61725D01*
X460012Y62528D01*
X458528Y64012D01*
X457942Y65427D01*
X457941Y65429D01*
X457941Y65431D01*
X457857Y65581D01*
X457773Y65732D01*
X457772Y65733D01*
X457771Y65735D01*
X457612Y65921D01*
X456123Y67410D01*
X455427Y69090D01*
X455427Y87910D01*
X456123Y89590D01*
X462562Y96029D01*
X462624Y96107D01*
X462694Y96180D01*
X462733Y96244D01*
X462779Y96302D01*
X462822Y96393D01*
X462873Y96479D01*
X462896Y96550D01*
X462928Y96617D01*
X462949Y96715D01*
X462979Y96811D01*
X462985Y96885D01*
X463001Y96958D01*
X462999Y97058D01*
X463007Y97158D01*
X462996Y97232D01*
X462995Y97306D01*
X462971Y97403D01*
X462956Y97503D01*
X462928Y97572D01*
X462910Y97644D01*
X462864Y97734D01*
X462827Y97827D01*
X462785Y97888D01*
X462750Y97954D01*
X462685Y98031D01*
X462628Y98113D01*
X462573Y98163D01*
X462525Y98219D01*
X462444Y98279D01*
X462369Y98346D01*
X462304Y98382D01*
X462244Y98427D01*
X462152Y98466D01*
X462064Y98515D01*
X461993Y98535D01*
X461924Y98565D01*
X461826Y98582D01*
X461729Y98610D01*
X461629Y98618D01*
X461581Y98626D01*
X461546Y98624D01*
X461485Y98629D01*
X459727Y98629D01*
X459601Y98615D01*
X459475Y98608D01*
X459429Y98595D01*
X459381Y98589D01*
X459262Y98547D01*
X459140Y98512D01*
X459098Y98488D01*
X459053Y98472D01*
X458946Y98403D01*
X458836Y98342D01*
X458790Y98302D01*
X458760Y98283D01*
X458726Y98248D01*
X458650Y98183D01*
X445019Y84552D01*
X444949Y84463D01*
X444939Y84453D01*
X444935Y84447D01*
X444856Y84359D01*
X444832Y84317D01*
X444802Y84279D01*
X444748Y84165D01*
X444687Y84054D01*
X444674Y84008D01*
X444653Y83964D01*
X444627Y83841D01*
X444592Y83719D01*
X444587Y83658D01*
X444580Y83623D01*
X444581Y83575D01*
X444573Y83475D01*
X444573Y70090D01*
X443877Y68410D01*
X439388Y63921D01*
X439387Y63920D01*
X439385Y63918D01*
X439274Y63777D01*
X439171Y63648D01*
X439170Y63646D01*
X439169Y63645D01*
X439058Y63427D01*
X438472Y62012D01*
X436988Y60528D01*
X435049Y59725D01*
X432951Y59725D01*
G37*
%LPD*%
%LPC*%
G36*
X232939Y61665D02*
X232939Y61665D01*
X230978Y62477D01*
X229477Y63978D01*
X228665Y65939D01*
X228665Y68061D01*
X229477Y70022D01*
X230978Y71523D01*
X232538Y72169D01*
X232540Y72170D01*
X232542Y72170D01*
X232689Y72253D01*
X232842Y72338D01*
X232844Y72339D01*
X232846Y72340D01*
X233032Y72499D01*
X256410Y95877D01*
X258090Y96573D01*
X268652Y96573D01*
X268654Y96573D01*
X268656Y96573D01*
X268831Y96593D01*
X268998Y96613D01*
X269000Y96613D01*
X269002Y96614D01*
X269173Y96669D01*
X282814Y96669D01*
X284494Y95973D01*
X285968Y94499D01*
X285970Y94497D01*
X285971Y94496D01*
X286108Y94388D01*
X286241Y94282D01*
X286243Y94281D01*
X286244Y94280D01*
X286462Y94169D01*
X288022Y93523D01*
X289523Y92022D01*
X290335Y90061D01*
X290335Y87939D01*
X289714Y86441D01*
X289673Y86296D01*
X289627Y86153D01*
X289625Y86129D01*
X289619Y86106D01*
X289611Y85955D01*
X289599Y85806D01*
X289603Y85782D01*
X289602Y85758D01*
X289629Y85610D01*
X289651Y85461D01*
X289660Y85439D01*
X289664Y85415D01*
X289724Y85277D01*
X289780Y85137D01*
X289793Y85117D01*
X289803Y85095D01*
X289893Y84974D01*
X289979Y84851D01*
X289996Y84835D01*
X290011Y84815D01*
X290126Y84718D01*
X290237Y84618D01*
X290259Y84606D01*
X290277Y84590D01*
X290411Y84522D01*
X290542Y84449D01*
X290566Y84443D01*
X290587Y84432D01*
X290733Y84395D01*
X290878Y84354D01*
X290907Y84352D01*
X290925Y84347D01*
X290972Y84347D01*
X291122Y84335D01*
X293061Y84335D01*
X295022Y83523D01*
X296523Y82022D01*
X297335Y80061D01*
X297335Y77939D01*
X296523Y75978D01*
X295022Y74477D01*
X293061Y73665D01*
X292787Y73665D01*
X292785Y73665D01*
X292783Y73665D01*
X292612Y73645D01*
X292441Y73625D01*
X292439Y73625D01*
X292437Y73624D01*
X292204Y73549D01*
X291910Y73427D01*
X273096Y73427D01*
X273070Y73424D01*
X273044Y73426D01*
X272897Y73404D01*
X272750Y73387D01*
X272725Y73379D01*
X272699Y73375D01*
X272561Y73320D01*
X272422Y73270D01*
X272400Y73256D01*
X272375Y73246D01*
X272254Y73161D01*
X272129Y73081D01*
X272111Y73062D01*
X272089Y73047D01*
X271990Y72937D01*
X271887Y72830D01*
X271873Y72808D01*
X271856Y72788D01*
X271784Y72658D01*
X271708Y72531D01*
X271700Y72506D01*
X271687Y72483D01*
X271647Y72340D01*
X271602Y72199D01*
X271600Y72173D01*
X271592Y72148D01*
X271573Y71904D01*
X271573Y71204D01*
X271573Y71202D01*
X271573Y71200D01*
X271594Y71023D01*
X271613Y70858D01*
X271613Y70856D01*
X271614Y70854D01*
X271689Y70621D01*
X272335Y69061D01*
X272335Y66939D01*
X271523Y64978D01*
X270022Y63477D01*
X268061Y62665D01*
X265939Y62665D01*
X263978Y63477D01*
X262477Y64978D01*
X261665Y66939D01*
X261665Y69061D01*
X262311Y70621D01*
X262312Y70623D01*
X262313Y70625D01*
X262359Y70786D01*
X262407Y70956D01*
X262407Y70958D01*
X262408Y70960D01*
X262427Y71204D01*
X262427Y78910D01*
X263123Y80590D01*
X264410Y81877D01*
X266090Y82573D01*
X280205Y82573D01*
X280305Y82584D01*
X280406Y82586D01*
X280478Y82604D01*
X280552Y82613D01*
X280646Y82647D01*
X280744Y82671D01*
X280810Y82705D01*
X280880Y82730D01*
X280964Y82785D01*
X281053Y82831D01*
X281110Y82879D01*
X281173Y82919D01*
X281242Y82991D01*
X281319Y83056D01*
X281363Y83116D01*
X281415Y83170D01*
X281466Y83256D01*
X281526Y83337D01*
X281555Y83405D01*
X281594Y83469D01*
X281624Y83565D01*
X281664Y83657D01*
X281677Y83730D01*
X281700Y83801D01*
X281708Y83901D01*
X281726Y84000D01*
X281722Y84074D01*
X281728Y84148D01*
X281713Y84248D01*
X281708Y84348D01*
X281687Y84419D01*
X281676Y84493D01*
X281639Y84586D01*
X281611Y84683D01*
X281575Y84748D01*
X281547Y84817D01*
X281490Y84899D01*
X281441Y84987D01*
X281376Y85063D01*
X281348Y85103D01*
X281322Y85127D01*
X281282Y85173D01*
X280477Y85978D01*
X280227Y86583D01*
X280190Y86650D01*
X280162Y86721D01*
X280105Y86802D01*
X280058Y86888D01*
X280006Y86944D01*
X279963Y87007D01*
X279890Y87073D01*
X279823Y87146D01*
X279761Y87189D01*
X279704Y87240D01*
X279618Y87288D01*
X279537Y87344D01*
X279466Y87372D01*
X279399Y87409D01*
X279304Y87436D01*
X279213Y87472D01*
X279137Y87483D01*
X279063Y87504D01*
X278915Y87516D01*
X278868Y87523D01*
X278849Y87521D01*
X278820Y87523D01*
X271444Y87523D01*
X271442Y87523D01*
X271440Y87523D01*
X271266Y87503D01*
X271098Y87483D01*
X271096Y87483D01*
X271094Y87482D01*
X270923Y87427D01*
X261525Y87427D01*
X261399Y87413D01*
X261273Y87406D01*
X261227Y87393D01*
X261179Y87387D01*
X261060Y87345D01*
X260938Y87310D01*
X260896Y87286D01*
X260851Y87270D01*
X260744Y87201D01*
X260634Y87140D01*
X260588Y87100D01*
X260558Y87081D01*
X260524Y87046D01*
X260448Y86981D01*
X239499Y66032D01*
X239498Y66030D01*
X239496Y66029D01*
X239386Y65890D01*
X239282Y65759D01*
X239281Y65757D01*
X239280Y65756D01*
X239169Y65538D01*
X238523Y63978D01*
X237022Y62477D01*
X235061Y61665D01*
X232939Y61665D01*
G37*
%LPD*%
%LPC*%
G36*
X403081Y240665D02*
X403081Y240665D01*
X401120Y241477D01*
X399619Y242978D01*
X398807Y244939D01*
X398807Y247061D01*
X399619Y249022D01*
X401120Y250523D01*
X401632Y250735D01*
X401676Y250759D01*
X401724Y250776D01*
X401828Y250844D01*
X401937Y250904D01*
X401974Y250938D01*
X402017Y250965D01*
X402103Y251055D01*
X402195Y251138D01*
X402224Y251180D01*
X402259Y251216D01*
X402323Y251323D01*
X402393Y251425D01*
X402412Y251472D01*
X402438Y251515D01*
X402475Y251633D01*
X402521Y251749D01*
X402528Y251799D01*
X402544Y251847D01*
X402554Y251971D01*
X402572Y252094D01*
X402568Y252144D01*
X402572Y252194D01*
X402553Y252317D01*
X402543Y252441D01*
X402528Y252489D01*
X402520Y252539D01*
X402474Y252655D01*
X402436Y252773D01*
X402410Y252816D01*
X402391Y252863D01*
X402320Y252965D01*
X402256Y253071D01*
X402221Y253108D01*
X402192Y253149D01*
X402100Y253232D01*
X402013Y253321D01*
X401971Y253349D01*
X401934Y253382D01*
X401825Y253443D01*
X401720Y253510D01*
X401673Y253526D01*
X401629Y253551D01*
X401509Y253585D01*
X401392Y253626D01*
X401342Y253632D01*
X401293Y253646D01*
X401049Y253665D01*
X400939Y253665D01*
X398978Y254477D01*
X397477Y255978D01*
X396665Y257939D01*
X396665Y260061D01*
X397477Y262022D01*
X398978Y263523D01*
X400939Y264335D01*
X403061Y264335D01*
X404621Y263689D01*
X404623Y263688D01*
X404625Y263687D01*
X404786Y263641D01*
X404956Y263593D01*
X404958Y263593D01*
X404960Y263592D01*
X405204Y263573D01*
X422479Y263573D01*
X422605Y263587D01*
X422731Y263594D01*
X422777Y263607D01*
X422825Y263613D01*
X422944Y263655D01*
X423066Y263690D01*
X423108Y263714D01*
X423153Y263730D01*
X423260Y263799D01*
X423370Y263860D01*
X423416Y263900D01*
X423446Y263919D01*
X423480Y263954D01*
X423556Y264019D01*
X437505Y277968D01*
X437506Y277970D01*
X437508Y277971D01*
X437615Y278106D01*
X437722Y278241D01*
X437723Y278243D01*
X437724Y278244D01*
X437835Y278462D01*
X438481Y280022D01*
X439982Y281523D01*
X441943Y282335D01*
X444065Y282335D01*
X446026Y281523D01*
X447527Y280022D01*
X448339Y278061D01*
X448339Y275939D01*
X447527Y273978D01*
X446026Y272477D01*
X444466Y271831D01*
X444464Y271830D01*
X444462Y271830D01*
X444310Y271745D01*
X444162Y271662D01*
X444160Y271661D01*
X444158Y271660D01*
X443972Y271501D01*
X437121Y264650D01*
X437028Y264533D01*
X436930Y264418D01*
X436919Y264396D01*
X436904Y264377D01*
X436840Y264241D01*
X436772Y264107D01*
X436766Y264084D01*
X436755Y264062D01*
X436724Y263915D01*
X436687Y263769D01*
X436687Y263745D01*
X436682Y263721D01*
X436685Y263572D01*
X436682Y263421D01*
X436688Y263397D01*
X436688Y263373D01*
X436725Y263227D01*
X436757Y263080D01*
X436767Y263058D01*
X436773Y263035D01*
X436842Y262901D01*
X436906Y262766D01*
X436922Y262747D01*
X436933Y262725D01*
X437030Y262611D01*
X437124Y262493D01*
X437143Y262478D01*
X437158Y262460D01*
X437279Y262370D01*
X437397Y262277D01*
X437423Y262264D01*
X437439Y262253D01*
X437482Y262234D01*
X437615Y262166D01*
X439168Y261523D01*
X440669Y260022D01*
X441481Y258061D01*
X441481Y255939D01*
X440669Y253978D01*
X439168Y252477D01*
X437608Y251831D01*
X437606Y251830D01*
X437604Y251830D01*
X437452Y251745D01*
X437304Y251662D01*
X437302Y251661D01*
X437300Y251660D01*
X437114Y251501D01*
X429237Y243624D01*
X427736Y242123D01*
X426056Y241427D01*
X407346Y241427D01*
X407344Y241427D01*
X407342Y241427D01*
X407165Y241406D01*
X407000Y241387D01*
X406998Y241387D01*
X406996Y241386D01*
X406763Y241311D01*
X405203Y240665D01*
X403081Y240665D01*
G37*
%LPD*%
%LPC*%
G36*
X495607Y151325D02*
X495607Y151325D01*
X490525Y156407D01*
X490525Y160140D01*
X490511Y160266D01*
X490504Y160392D01*
X490491Y160438D01*
X490485Y160486D01*
X490443Y160605D01*
X490408Y160727D01*
X490384Y160769D01*
X490368Y160814D01*
X490299Y160921D01*
X490238Y161031D01*
X490198Y161077D01*
X490179Y161107D01*
X490144Y161141D01*
X490079Y161217D01*
X483031Y168265D01*
X482932Y168344D01*
X482838Y168428D01*
X482796Y168452D01*
X482758Y168482D01*
X482644Y168536D01*
X482533Y168597D01*
X482487Y168610D01*
X482443Y168631D01*
X482320Y168657D01*
X482198Y168692D01*
X482137Y168697D01*
X482102Y168704D01*
X482054Y168703D01*
X481954Y168711D01*
X471514Y168711D01*
X471388Y168697D01*
X471262Y168690D01*
X471215Y168677D01*
X471167Y168671D01*
X471048Y168629D01*
X470927Y168594D01*
X470885Y168570D01*
X470839Y168554D01*
X470733Y168485D01*
X470623Y168424D01*
X470577Y168384D01*
X470547Y168365D01*
X470513Y168330D01*
X470437Y168265D01*
X468396Y166224D01*
X464895Y164774D01*
X461105Y164774D01*
X457604Y166224D01*
X454924Y168904D01*
X453474Y172405D01*
X453474Y176195D01*
X454924Y179696D01*
X457604Y182376D01*
X461105Y183826D01*
X464895Y183826D01*
X468396Y182376D01*
X470437Y180335D01*
X470536Y180256D01*
X470629Y180172D01*
X470672Y180148D01*
X470710Y180118D01*
X470824Y180064D01*
X470934Y180003D01*
X470981Y179990D01*
X471025Y179969D01*
X471148Y179943D01*
X471270Y179908D01*
X471331Y179903D01*
X471365Y179896D01*
X471413Y179897D01*
X471514Y179889D01*
X486012Y179889D01*
X488066Y179038D01*
X497983Y169121D01*
X498082Y169042D01*
X498176Y168958D01*
X498218Y168934D01*
X498256Y168904D01*
X498370Y168850D01*
X498481Y168789D01*
X498527Y168776D01*
X498571Y168755D01*
X498694Y168729D01*
X498816Y168694D01*
X498877Y168689D01*
X498912Y168682D01*
X498960Y168683D01*
X499060Y168675D01*
X502793Y168675D01*
X507875Y163593D01*
X507875Y156407D01*
X502793Y151325D01*
X495607Y151325D01*
G37*
%LPD*%
%LPC*%
G36*
X429951Y159725D02*
X429951Y159725D01*
X428012Y160528D01*
X426528Y162012D01*
X425942Y163427D01*
X425941Y163429D01*
X425941Y163431D01*
X425857Y163581D01*
X425773Y163732D01*
X425772Y163733D01*
X425771Y163735D01*
X425612Y163921D01*
X417552Y171981D01*
X417453Y172060D01*
X417359Y172144D01*
X417317Y172168D01*
X417279Y172198D01*
X417165Y172252D01*
X417054Y172313D01*
X417008Y172326D01*
X416964Y172347D01*
X416841Y172373D01*
X416719Y172408D01*
X416658Y172413D01*
X416623Y172420D01*
X416575Y172419D01*
X416475Y172427D01*
X410047Y172427D01*
X410045Y172427D01*
X410043Y172427D01*
X409866Y172406D01*
X409701Y172387D01*
X409699Y172387D01*
X409697Y172386D01*
X409464Y172311D01*
X408049Y171725D01*
X405951Y171725D01*
X404012Y172528D01*
X402528Y174012D01*
X401725Y175951D01*
X401725Y178049D01*
X402528Y179988D01*
X404012Y181472D01*
X405951Y182275D01*
X408202Y182275D01*
X408228Y182278D01*
X408254Y182276D01*
X408401Y182298D01*
X408548Y182315D01*
X408573Y182323D01*
X408599Y182327D01*
X408737Y182382D01*
X408876Y182432D01*
X408898Y182446D01*
X408923Y182456D01*
X409044Y182541D01*
X409169Y182621D01*
X409187Y182640D01*
X409209Y182655D01*
X409308Y182765D01*
X409411Y182872D01*
X409425Y182894D01*
X409442Y182914D01*
X409514Y183044D01*
X409590Y183171D01*
X409598Y183196D01*
X409611Y183219D01*
X409651Y183362D01*
X409696Y183503D01*
X409698Y183529D01*
X409706Y183554D01*
X409725Y183798D01*
X409725Y185049D01*
X410528Y186988D01*
X412012Y188472D01*
X413951Y189275D01*
X416049Y189275D01*
X417464Y188689D01*
X417466Y188688D01*
X417468Y188687D01*
X417633Y188640D01*
X417799Y188593D01*
X417801Y188593D01*
X417803Y188592D01*
X418047Y188573D01*
X422910Y188573D01*
X424590Y187877D01*
X442079Y170388D01*
X442080Y170387D01*
X442082Y170385D01*
X442221Y170275D01*
X442352Y170171D01*
X442354Y170170D01*
X442355Y170169D01*
X442573Y170058D01*
X443988Y169472D01*
X445472Y167988D01*
X446275Y166049D01*
X446275Y163951D01*
X445472Y162012D01*
X443988Y160528D01*
X442049Y159725D01*
X439951Y159725D01*
X438012Y160528D01*
X437077Y161463D01*
X437057Y161480D01*
X437040Y161500D01*
X436920Y161588D01*
X436804Y161680D01*
X436780Y161691D01*
X436759Y161707D01*
X436623Y161765D01*
X436489Y161829D01*
X436463Y161834D01*
X436439Y161845D01*
X436293Y161871D01*
X436148Y161902D01*
X436122Y161902D01*
X436096Y161906D01*
X435948Y161899D01*
X435800Y161896D01*
X435774Y161890D01*
X435748Y161888D01*
X435606Y161848D01*
X435462Y161811D01*
X435438Y161799D01*
X435413Y161792D01*
X435284Y161720D01*
X435152Y161652D01*
X435132Y161635D01*
X435109Y161622D01*
X434923Y161463D01*
X433988Y160528D01*
X432049Y159725D01*
X429951Y159725D01*
G37*
%LPD*%
%LPC*%
G36*
X135161Y256255D02*
X135161Y256255D01*
X131800Y257648D01*
X129228Y260220D01*
X127835Y263581D01*
X127835Y267219D01*
X129228Y270580D01*
X131800Y273152D01*
X135161Y274545D01*
X154039Y274545D01*
X157400Y273152D01*
X159972Y270580D01*
X161365Y267219D01*
X161365Y263581D01*
X159972Y260220D01*
X157400Y257648D01*
X154039Y256255D01*
X135161Y256255D01*
G37*
%LPD*%
%LPC*%
G36*
X135161Y230855D02*
X135161Y230855D01*
X131800Y232248D01*
X129228Y234820D01*
X127835Y238181D01*
X127835Y241819D01*
X129228Y245180D01*
X131800Y247752D01*
X135161Y249145D01*
X154039Y249145D01*
X157400Y247752D01*
X159972Y245180D01*
X161365Y241819D01*
X161365Y238181D01*
X159972Y234820D01*
X157400Y232248D01*
X154039Y230855D01*
X135161Y230855D01*
G37*
%LPD*%
%LPC*%
G36*
X135161Y205455D02*
X135161Y205455D01*
X131800Y206848D01*
X129228Y209420D01*
X127835Y212781D01*
X127835Y216419D01*
X129228Y219780D01*
X131800Y222352D01*
X135161Y223745D01*
X154039Y223745D01*
X157400Y222352D01*
X159972Y219780D01*
X161365Y216419D01*
X161365Y212781D01*
X159972Y209420D01*
X157400Y206848D01*
X154039Y205455D01*
X135161Y205455D01*
G37*
%LPD*%
%LPC*%
G36*
X356441Y137959D02*
X356441Y137959D01*
X350359Y144042D01*
X350338Y144058D01*
X350321Y144078D01*
X350222Y144151D01*
X350197Y144174D01*
X350181Y144183D01*
X350086Y144258D01*
X350062Y144269D01*
X350041Y144285D01*
X349905Y144344D01*
X349771Y144407D01*
X349745Y144413D01*
X349721Y144423D01*
X349575Y144449D01*
X349430Y144481D01*
X349404Y144480D01*
X349378Y144485D01*
X349229Y144477D01*
X349081Y144475D01*
X349056Y144468D01*
X349030Y144467D01*
X348887Y144426D01*
X348743Y144390D01*
X348720Y144378D01*
X348695Y144370D01*
X348565Y144298D01*
X348434Y144230D01*
X348414Y144213D01*
X348391Y144200D01*
X348291Y144116D01*
X348284Y144111D01*
X348275Y144102D01*
X348204Y144042D01*
X343138Y138975D01*
X335662Y138975D01*
X330375Y144262D01*
X330375Y151738D01*
X335662Y157025D01*
X343138Y157025D01*
X348204Y151958D01*
X348225Y151942D01*
X348242Y151922D01*
X348362Y151834D01*
X348477Y151742D01*
X348501Y151731D01*
X348522Y151715D01*
X348659Y151656D01*
X348793Y151593D01*
X348818Y151587D01*
X348842Y151577D01*
X348988Y151551D01*
X349133Y151519D01*
X349159Y151520D01*
X349185Y151515D01*
X349334Y151523D01*
X349482Y151525D01*
X349507Y151532D01*
X349533Y151533D01*
X349676Y151574D01*
X349820Y151610D01*
X349843Y151622D01*
X349868Y151630D01*
X349998Y151702D01*
X350130Y151770D01*
X350150Y151787D01*
X350172Y151800D01*
X350359Y151958D01*
X356441Y158041D01*
X358569Y158041D01*
X358569Y148508D01*
X358572Y148482D01*
X358570Y148456D01*
X358592Y148309D01*
X358609Y148162D01*
X358617Y148137D01*
X358621Y148111D01*
X358664Y148004D01*
X358643Y147928D01*
X358598Y147787D01*
X358595Y147761D01*
X358588Y147736D01*
X358569Y147492D01*
X358569Y137959D01*
X356441Y137959D01*
G37*
%LPD*%
%LPC*%
G36*
X27757Y276225D02*
X27757Y276225D01*
X23613Y277942D01*
X20442Y281113D01*
X18725Y285257D01*
X18725Y289743D01*
X20442Y293887D01*
X23613Y297058D01*
X27757Y298775D01*
X32243Y298775D01*
X36387Y297058D01*
X39558Y293887D01*
X41275Y289743D01*
X41275Y285257D01*
X39558Y281113D01*
X36387Y277942D01*
X32243Y276225D01*
X27757Y276225D01*
G37*
%LPD*%
%LPC*%
G36*
X180257Y18725D02*
X180257Y18725D01*
X176113Y20442D01*
X172942Y23613D01*
X171225Y27757D01*
X171225Y32243D01*
X172942Y36387D01*
X176113Y39558D01*
X180257Y41275D01*
X184743Y41275D01*
X188887Y39558D01*
X192058Y36387D01*
X193775Y32243D01*
X193775Y27757D01*
X192058Y23613D01*
X188887Y20442D01*
X184743Y18725D01*
X180257Y18725D01*
G37*
%LPD*%
%LPC*%
G36*
X215257Y18725D02*
X215257Y18725D01*
X211113Y20442D01*
X207942Y23613D01*
X206225Y27757D01*
X206225Y32243D01*
X207942Y36387D01*
X211113Y39558D01*
X215257Y41275D01*
X219743Y41275D01*
X223887Y39558D01*
X227058Y36387D01*
X228775Y32243D01*
X228775Y27757D01*
X227058Y23613D01*
X223887Y20442D01*
X219743Y18725D01*
X215257Y18725D01*
G37*
%LPD*%
%LPC*%
G36*
X280257Y18725D02*
X280257Y18725D01*
X276113Y20442D01*
X272942Y23613D01*
X271225Y27757D01*
X271225Y32243D01*
X272942Y36387D01*
X276113Y39558D01*
X280257Y41275D01*
X284743Y41275D01*
X288887Y39558D01*
X292058Y36387D01*
X293775Y32243D01*
X293775Y27757D01*
X292058Y23613D01*
X288887Y20442D01*
X284743Y18725D01*
X280257Y18725D01*
G37*
%LPD*%
%LPC*%
G36*
X315257Y18725D02*
X315257Y18725D01*
X311113Y20442D01*
X307942Y23613D01*
X306225Y27757D01*
X306225Y32243D01*
X307942Y36387D01*
X311113Y39558D01*
X315257Y41275D01*
X319743Y41275D01*
X323887Y39558D01*
X327058Y36387D01*
X328775Y32243D01*
X328775Y27757D01*
X327058Y23613D01*
X323887Y20442D01*
X319743Y18725D01*
X315257Y18725D01*
G37*
%LPD*%
%LPC*%
G36*
X380257Y18725D02*
X380257Y18725D01*
X376113Y20442D01*
X372942Y23613D01*
X371225Y27757D01*
X371225Y32243D01*
X372942Y36387D01*
X376113Y39558D01*
X380257Y41275D01*
X384743Y41275D01*
X388887Y39558D01*
X392058Y36387D01*
X393775Y32243D01*
X393775Y27757D01*
X392058Y23613D01*
X388887Y20442D01*
X384743Y18725D01*
X380257Y18725D01*
G37*
%LPD*%
%LPC*%
G36*
X415257Y18725D02*
X415257Y18725D01*
X411113Y20442D01*
X407942Y23613D01*
X406225Y27757D01*
X406225Y32243D01*
X407942Y36387D01*
X411113Y39558D01*
X415257Y41275D01*
X419743Y41275D01*
X423887Y39558D01*
X427058Y36387D01*
X428775Y32243D01*
X428775Y27757D01*
X427058Y23613D01*
X423887Y20442D01*
X419743Y18725D01*
X415257Y18725D01*
G37*
%LPD*%
%LPC*%
G36*
X480257Y18725D02*
X480257Y18725D01*
X476113Y20442D01*
X472942Y23613D01*
X471225Y27757D01*
X471225Y32243D01*
X472942Y36387D01*
X476113Y39558D01*
X480257Y41275D01*
X484743Y41275D01*
X488887Y39558D01*
X492058Y36387D01*
X493775Y32243D01*
X493775Y27757D01*
X492058Y23613D01*
X488887Y20442D01*
X484743Y18725D01*
X480257Y18725D01*
G37*
%LPD*%
%LPC*%
G36*
X515257Y18725D02*
X515257Y18725D01*
X511113Y20442D01*
X507942Y23613D01*
X506225Y27757D01*
X506225Y32243D01*
X507942Y36387D01*
X511113Y39558D01*
X515257Y41275D01*
X519743Y41275D01*
X523887Y39558D01*
X527058Y36387D01*
X528775Y32243D01*
X528775Y27757D01*
X527058Y23613D01*
X523887Y20442D01*
X519743Y18725D01*
X515257Y18725D01*
G37*
%LPD*%
%LPC*%
G36*
X667757Y171225D02*
X667757Y171225D01*
X663613Y172942D01*
X660442Y176113D01*
X658725Y180257D01*
X658725Y184743D01*
X660442Y188887D01*
X663613Y192058D01*
X667757Y193775D01*
X672243Y193775D01*
X676387Y192058D01*
X679558Y188887D01*
X681275Y184743D01*
X681275Y180257D01*
X679558Y176113D01*
X676387Y172942D01*
X672243Y171225D01*
X667757Y171225D01*
G37*
%LPD*%
%LPC*%
G36*
X667757Y241225D02*
X667757Y241225D01*
X663613Y242942D01*
X660442Y246113D01*
X658725Y250257D01*
X658725Y254743D01*
X660442Y258887D01*
X663613Y262058D01*
X667757Y263775D01*
X672243Y263775D01*
X676387Y262058D01*
X679558Y258887D01*
X681275Y254743D01*
X681275Y250257D01*
X679558Y246113D01*
X676387Y242942D01*
X672243Y241225D01*
X667757Y241225D01*
G37*
%LPD*%
%LPC*%
G36*
X27757Y241225D02*
X27757Y241225D01*
X23613Y242942D01*
X20442Y246113D01*
X18725Y250257D01*
X18725Y254743D01*
X20442Y258887D01*
X23613Y262058D01*
X27757Y263775D01*
X32243Y263775D01*
X36387Y262058D01*
X39558Y258887D01*
X41275Y254743D01*
X41275Y250257D01*
X39558Y246113D01*
X36387Y242942D01*
X32243Y241225D01*
X27757Y241225D01*
G37*
%LPD*%
%LPC*%
G36*
X667757Y206225D02*
X667757Y206225D01*
X663613Y207942D01*
X660442Y211113D01*
X658725Y215257D01*
X658725Y219743D01*
X660442Y223887D01*
X663613Y227058D01*
X667757Y228775D01*
X672243Y228775D01*
X676387Y227058D01*
X679558Y223887D01*
X681275Y219743D01*
X681275Y215257D01*
X679558Y211113D01*
X676387Y207942D01*
X672243Y206225D01*
X667757Y206225D01*
G37*
%LPD*%
%LPC*%
G36*
X187777Y178023D02*
X187777Y178023D01*
X183669Y179725D01*
X180525Y182869D01*
X178823Y186977D01*
X178823Y191423D01*
X180525Y195531D01*
X183669Y198675D01*
X187777Y200377D01*
X192223Y200377D01*
X196331Y198675D01*
X199475Y195531D01*
X201177Y191423D01*
X201177Y186977D01*
X199475Y182869D01*
X196331Y179725D01*
X192223Y178023D01*
X187777Y178023D01*
G37*
%LPD*%
%LPC*%
G36*
X187777Y279623D02*
X187777Y279623D01*
X183669Y281325D01*
X180525Y284469D01*
X178823Y288577D01*
X178823Y293023D01*
X180525Y297131D01*
X183669Y300275D01*
X187777Y301977D01*
X192223Y301977D01*
X196331Y300275D01*
X199475Y297131D01*
X201177Y293023D01*
X201177Y288577D01*
X199475Y284469D01*
X196331Y281325D01*
X192223Y279623D01*
X187777Y279623D01*
G37*
%LPD*%
%LPC*%
G36*
X128105Y340174D02*
X128105Y340174D01*
X124604Y341624D01*
X121924Y344304D01*
X120474Y347805D01*
X120474Y351595D01*
X121924Y355096D01*
X124604Y357776D01*
X128105Y359226D01*
X131895Y359226D01*
X135396Y357776D01*
X138076Y355096D01*
X139526Y351595D01*
X139526Y347805D01*
X138076Y344304D01*
X135396Y341624D01*
X131895Y340174D01*
X128105Y340174D01*
G37*
%LPD*%
%LPC*%
G36*
X568105Y340174D02*
X568105Y340174D01*
X564604Y341624D01*
X561924Y344304D01*
X560474Y347805D01*
X560474Y351595D01*
X561924Y355096D01*
X564604Y357776D01*
X568105Y359226D01*
X571895Y359226D01*
X575396Y357776D01*
X578076Y355096D01*
X579526Y351595D01*
X579526Y347805D01*
X578076Y344304D01*
X575396Y341624D01*
X571895Y340174D01*
X568105Y340174D01*
G37*
%LPD*%
%LPC*%
G36*
X308912Y340855D02*
X308912Y340855D01*
X303555Y346212D01*
X303555Y353788D01*
X308912Y359145D01*
X316488Y359145D01*
X321845Y353788D01*
X321845Y346212D01*
X316488Y340855D01*
X308912Y340855D01*
G37*
%LPD*%
%LPC*%
G36*
X508912Y315455D02*
X508912Y315455D01*
X503555Y320812D01*
X503555Y328388D01*
X508912Y333745D01*
X516488Y333745D01*
X521845Y328388D01*
X521845Y320812D01*
X516488Y315455D01*
X508912Y315455D01*
G37*
%LPD*%
%LPC*%
G36*
X183512Y315455D02*
X183512Y315455D01*
X178155Y320812D01*
X178155Y328388D01*
X183512Y333745D01*
X191088Y333745D01*
X196445Y328388D01*
X196445Y320812D01*
X191088Y315455D01*
X183512Y315455D01*
G37*
%LPD*%
%LPC*%
G36*
X208912Y315455D02*
X208912Y315455D01*
X203555Y320812D01*
X203555Y328388D01*
X208912Y333745D01*
X216488Y333745D01*
X221845Y328388D01*
X221845Y320812D01*
X216488Y315455D01*
X208912Y315455D01*
G37*
%LPD*%
%LPC*%
G36*
X183512Y340855D02*
X183512Y340855D01*
X178155Y346212D01*
X178155Y353788D01*
X183512Y359145D01*
X191088Y359145D01*
X196445Y353788D01*
X196445Y346212D01*
X191088Y340855D01*
X183512Y340855D01*
G37*
%LPD*%
%LPC*%
G36*
X508912Y340855D02*
X508912Y340855D01*
X503555Y346212D01*
X503555Y353788D01*
X508912Y359145D01*
X516488Y359145D01*
X521845Y353788D01*
X521845Y346212D01*
X516488Y340855D01*
X508912Y340855D01*
G37*
%LPD*%
%LPC*%
G36*
X483512Y340855D02*
X483512Y340855D01*
X478155Y346212D01*
X478155Y353788D01*
X483512Y359145D01*
X491088Y359145D01*
X496445Y353788D01*
X496445Y346212D01*
X491088Y340855D01*
X483512Y340855D01*
G37*
%LPD*%
%LPC*%
G36*
X408912Y340855D02*
X408912Y340855D01*
X403555Y346212D01*
X403555Y353788D01*
X408912Y359145D01*
X416488Y359145D01*
X421845Y353788D01*
X421845Y346212D01*
X416488Y340855D01*
X408912Y340855D01*
G37*
%LPD*%
%LPC*%
G36*
X383512Y340855D02*
X383512Y340855D01*
X378155Y346212D01*
X378155Y353788D01*
X383512Y359145D01*
X391088Y359145D01*
X396445Y353788D01*
X396445Y346212D01*
X391088Y340855D01*
X383512Y340855D01*
G37*
%LPD*%
%LPC*%
G36*
X308912Y315455D02*
X308912Y315455D01*
X303555Y320812D01*
X303555Y328388D01*
X308912Y333745D01*
X316488Y333745D01*
X321845Y328388D01*
X321845Y320812D01*
X316488Y315455D01*
X308912Y315455D01*
G37*
%LPD*%
%LPC*%
G36*
X283512Y340855D02*
X283512Y340855D01*
X278155Y346212D01*
X278155Y353788D01*
X283512Y359145D01*
X291088Y359145D01*
X296445Y353788D01*
X296445Y346212D01*
X291088Y340855D01*
X283512Y340855D01*
G37*
%LPD*%
%LPC*%
G36*
X208912Y340855D02*
X208912Y340855D01*
X203555Y346212D01*
X203555Y353788D01*
X208912Y359145D01*
X216488Y359145D01*
X221845Y353788D01*
X221845Y346212D01*
X216488Y340855D01*
X208912Y340855D01*
G37*
%LPD*%
%LPC*%
G36*
X383512Y315455D02*
X383512Y315455D01*
X378155Y320812D01*
X378155Y328388D01*
X383512Y333745D01*
X391088Y333745D01*
X396445Y328388D01*
X396445Y320812D01*
X391088Y315455D01*
X383512Y315455D01*
G37*
%LPD*%
%LPC*%
G36*
X408912Y315455D02*
X408912Y315455D01*
X403555Y320812D01*
X403555Y328388D01*
X408912Y333745D01*
X416488Y333745D01*
X421845Y328388D01*
X421845Y320812D01*
X416488Y315455D01*
X408912Y315455D01*
G37*
%LPD*%
%LPC*%
G36*
X483512Y315455D02*
X483512Y315455D01*
X478155Y320812D01*
X478155Y328388D01*
X483512Y333745D01*
X491088Y333745D01*
X496445Y328388D01*
X496445Y320812D01*
X491088Y315455D01*
X483512Y315455D01*
G37*
%LPD*%
%LPC*%
G36*
X283512Y315455D02*
X283512Y315455D01*
X278155Y320812D01*
X278155Y328388D01*
X283512Y333745D01*
X291088Y333745D01*
X296445Y328388D01*
X296445Y320812D01*
X291088Y315455D01*
X283512Y315455D01*
G37*
%LPD*%
%LPC*%
G36*
X171662Y140975D02*
X171662Y140975D01*
X166375Y146262D01*
X166375Y153738D01*
X171662Y159025D01*
X179138Y159025D01*
X184425Y153738D01*
X184425Y146262D01*
X179138Y140975D01*
X171662Y140975D01*
G37*
%LPD*%
%LPC*%
G36*
X561662Y180975D02*
X561662Y180975D01*
X556375Y186262D01*
X556375Y193738D01*
X561662Y199025D01*
X569138Y199025D01*
X574425Y193738D01*
X574425Y186262D01*
X569138Y180975D01*
X561662Y180975D01*
G37*
%LPD*%
%LPC*%
G36*
X371662Y273975D02*
X371662Y273975D01*
X366375Y279262D01*
X366375Y286738D01*
X371662Y292025D01*
X379138Y292025D01*
X384425Y286738D01*
X384425Y279262D01*
X379138Y273975D01*
X371662Y273975D01*
G37*
%LPD*%
%LPC*%
G36*
X407662Y138975D02*
X407662Y138975D01*
X402375Y144262D01*
X402375Y151738D01*
X407662Y157025D01*
X415138Y157025D01*
X420425Y151738D01*
X420425Y144262D01*
X415138Y138975D01*
X407662Y138975D01*
G37*
%LPD*%
%LPC*%
G36*
X510862Y180975D02*
X510862Y180975D01*
X505575Y186262D01*
X505575Y193738D01*
X510862Y199025D01*
X518338Y199025D01*
X523625Y193738D01*
X523625Y186262D01*
X518338Y180975D01*
X510862Y180975D01*
G37*
%LPD*%
%LPC*%
G36*
X106407Y282125D02*
X106407Y282125D01*
X101325Y287207D01*
X101325Y294393D01*
X106407Y299475D01*
X113593Y299475D01*
X118675Y294393D01*
X118675Y287207D01*
X113593Y282125D01*
X106407Y282125D01*
G37*
%LPD*%
%LPC*%
G36*
X197207Y111325D02*
X197207Y111325D01*
X192125Y116407D01*
X192125Y123593D01*
X197207Y128675D01*
X204393Y128675D01*
X209475Y123593D01*
X209475Y116407D01*
X204393Y111325D01*
X197207Y111325D01*
G37*
%LPD*%
%LPC*%
G36*
X597207Y151325D02*
X597207Y151325D01*
X592125Y156407D01*
X592125Y163593D01*
X597207Y168675D01*
X604393Y168675D01*
X609475Y163593D01*
X609475Y156407D01*
X604393Y151325D01*
X597207Y151325D01*
G37*
%LPD*%
%LPC*%
G36*
X95607Y111325D02*
X95607Y111325D01*
X90525Y116407D01*
X90525Y123593D01*
X95607Y128675D01*
X102793Y128675D01*
X107875Y123593D01*
X107875Y116407D01*
X102793Y111325D01*
X95607Y111325D01*
G37*
%LPD*%
%LPC*%
G36*
X33047Y185547D02*
X33047Y185547D01*
X33047Y194433D01*
X34718Y193890D01*
X36442Y193012D01*
X38007Y191875D01*
X39375Y190507D01*
X40512Y188942D01*
X41390Y187218D01*
X41933Y185547D01*
X33047Y185547D01*
G37*
%LPD*%
%LPC*%
G36*
X33047Y220547D02*
X33047Y220547D01*
X33047Y229433D01*
X34718Y228890D01*
X36442Y228012D01*
X38007Y226875D01*
X39375Y225507D01*
X40512Y223942D01*
X41390Y222218D01*
X41933Y220547D01*
X33047Y220547D01*
G37*
%LPD*%
%LPC*%
G36*
X673047Y290547D02*
X673047Y290547D01*
X673047Y299433D01*
X674718Y298890D01*
X676442Y298012D01*
X678007Y296875D01*
X679375Y295507D01*
X680512Y293942D01*
X681390Y292218D01*
X681933Y290547D01*
X673047Y290547D01*
G37*
%LPD*%
%LPC*%
G36*
X33047Y179453D02*
X33047Y179453D01*
X41933Y179453D01*
X41390Y177782D01*
X40512Y176058D01*
X39375Y174493D01*
X38007Y173125D01*
X36442Y171988D01*
X34718Y171110D01*
X33047Y170567D01*
X33047Y179453D01*
G37*
%LPD*%
%LPC*%
G36*
X673047Y284453D02*
X673047Y284453D01*
X681933Y284453D01*
X681390Y282782D01*
X680512Y281058D01*
X679375Y279493D01*
X678007Y278125D01*
X676442Y276988D01*
X674718Y276110D01*
X673047Y275567D01*
X673047Y284453D01*
G37*
%LPD*%
%LPC*%
G36*
X33047Y214453D02*
X33047Y214453D01*
X41933Y214453D01*
X41390Y212782D01*
X40512Y211058D01*
X39375Y209493D01*
X38007Y208125D01*
X36442Y206988D01*
X34718Y206110D01*
X33047Y205567D01*
X33047Y214453D01*
G37*
%LPD*%
%LPC*%
G36*
X18067Y185547D02*
X18067Y185547D01*
X18610Y187218D01*
X19488Y188942D01*
X20625Y190507D01*
X21993Y191875D01*
X23558Y193012D01*
X25282Y193890D01*
X26953Y194433D01*
X26953Y185547D01*
X18067Y185547D01*
G37*
%LPD*%
%LPC*%
G36*
X658067Y290547D02*
X658067Y290547D01*
X658610Y292218D01*
X659488Y293942D01*
X660625Y295507D01*
X661993Y296875D01*
X663558Y298012D01*
X665282Y298890D01*
X666953Y299433D01*
X666953Y290547D01*
X658067Y290547D01*
G37*
%LPD*%
%LPC*%
G36*
X18067Y220547D02*
X18067Y220547D01*
X18610Y222218D01*
X19488Y223942D01*
X20625Y225507D01*
X21993Y226875D01*
X23558Y228012D01*
X25282Y228890D01*
X26953Y229433D01*
X26953Y220547D01*
X18067Y220547D01*
G37*
%LPD*%
%LPC*%
G36*
X665282Y276110D02*
X665282Y276110D01*
X663558Y276988D01*
X661993Y278125D01*
X660625Y279493D01*
X659488Y281058D01*
X658610Y282782D01*
X658067Y284453D01*
X666953Y284453D01*
X666953Y275567D01*
X665282Y276110D01*
G37*
%LPD*%
%LPC*%
G36*
X25282Y206110D02*
X25282Y206110D01*
X23558Y206988D01*
X21993Y208125D01*
X20625Y209493D01*
X19488Y211058D01*
X18610Y212782D01*
X18067Y214453D01*
X26953Y214453D01*
X26953Y205567D01*
X25282Y206110D01*
G37*
%LPD*%
%LPC*%
G36*
X25282Y171110D02*
X25282Y171110D01*
X23558Y171988D01*
X21993Y173125D01*
X20625Y174493D01*
X19488Y176058D01*
X18610Y177782D01*
X18067Y179453D01*
X26953Y179453D01*
X26953Y170567D01*
X25282Y171110D01*
G37*
%LPD*%
%LPC*%
G36*
X572031Y326331D02*
X572031Y326331D01*
X572031Y334842D01*
X574367Y334842D01*
X580542Y328667D01*
X580542Y326331D01*
X572031Y326331D01*
G37*
%LPD*%
%LPC*%
G36*
X132031Y326331D02*
X132031Y326331D01*
X132031Y334842D01*
X134367Y334842D01*
X140542Y328667D01*
X140542Y326331D01*
X132031Y326331D01*
G37*
%LPD*%
%LPC*%
G36*
X465031Y201731D02*
X465031Y201731D01*
X465031Y210242D01*
X467367Y210242D01*
X473542Y204067D01*
X473542Y201731D01*
X465031Y201731D01*
G37*
%LPD*%
%LPC*%
G36*
X559458Y326331D02*
X559458Y326331D01*
X559458Y328667D01*
X565633Y334842D01*
X567969Y334842D01*
X567969Y326331D01*
X559458Y326331D01*
G37*
%LPD*%
%LPC*%
G36*
X452458Y201731D02*
X452458Y201731D01*
X452458Y204067D01*
X458633Y210242D01*
X460969Y210242D01*
X460969Y201731D01*
X452458Y201731D01*
G37*
%LPD*%
%LPC*%
G36*
X119458Y326331D02*
X119458Y326331D01*
X119458Y328667D01*
X125633Y334842D01*
X127969Y334842D01*
X127969Y326331D01*
X119458Y326331D01*
G37*
%LPD*%
%LPC*%
G36*
X572031Y313758D02*
X572031Y313758D01*
X572031Y322269D01*
X580542Y322269D01*
X580542Y319933D01*
X574367Y313758D01*
X572031Y313758D01*
G37*
%LPD*%
%LPC*%
G36*
X132031Y313758D02*
X132031Y313758D01*
X132031Y322269D01*
X140542Y322269D01*
X140542Y319933D01*
X134367Y313758D01*
X132031Y313758D01*
G37*
%LPD*%
%LPC*%
G36*
X465031Y189158D02*
X465031Y189158D01*
X465031Y197669D01*
X473542Y197669D01*
X473542Y195333D01*
X467367Y189158D01*
X465031Y189158D01*
G37*
%LPD*%
%LPC*%
G36*
X458633Y189158D02*
X458633Y189158D01*
X452458Y195333D01*
X452458Y197669D01*
X460969Y197669D01*
X460969Y189158D01*
X458633Y189158D01*
G37*
%LPD*%
%LPC*%
G36*
X565633Y313758D02*
X565633Y313758D01*
X559458Y319933D01*
X559458Y322269D01*
X567969Y322269D01*
X567969Y313758D01*
X565633Y313758D01*
G37*
%LPD*%
%LPC*%
G36*
X125633Y313758D02*
X125633Y313758D01*
X119458Y319933D01*
X119458Y322269D01*
X127969Y322269D01*
X127969Y313758D01*
X125633Y313758D01*
G37*
%LPD*%
%LPC*%
G36*
X362631Y150031D02*
X362631Y150031D01*
X362631Y158041D01*
X364759Y158041D01*
X370641Y152159D01*
X370641Y150031D01*
X362631Y150031D01*
G37*
%LPD*%
%LPC*%
G36*
X326631Y285031D02*
X326631Y285031D01*
X326631Y293041D01*
X328759Y293041D01*
X334641Y287159D01*
X334641Y285031D01*
X326631Y285031D01*
G37*
%LPD*%
%LPC*%
G36*
X126631Y152031D02*
X126631Y152031D01*
X126631Y160041D01*
X128759Y160041D01*
X134641Y154159D01*
X134641Y152031D01*
X126631Y152031D01*
G37*
%LPD*%
%LPC*%
G36*
X314559Y285031D02*
X314559Y285031D01*
X314559Y287159D01*
X320441Y293041D01*
X322569Y293041D01*
X322569Y285031D01*
X314559Y285031D01*
G37*
%LPD*%
%LPC*%
G36*
X114559Y152031D02*
X114559Y152031D01*
X114559Y154159D01*
X120441Y160041D01*
X122569Y160041D01*
X122569Y152031D01*
X114559Y152031D01*
G37*
%LPD*%
%LPC*%
G36*
X326631Y272959D02*
X326631Y272959D01*
X326631Y280969D01*
X334641Y280969D01*
X334641Y278841D01*
X328759Y272959D01*
X326631Y272959D01*
G37*
%LPD*%
%LPC*%
G36*
X362631Y137959D02*
X362631Y137959D01*
X362631Y145969D01*
X370641Y145969D01*
X370641Y143841D01*
X364759Y137959D01*
X362631Y137959D01*
G37*
%LPD*%
%LPC*%
G36*
X126631Y139959D02*
X126631Y139959D01*
X126631Y147969D01*
X134641Y147969D01*
X134641Y145841D01*
X128759Y139959D01*
X126631Y139959D01*
G37*
%LPD*%
%LPC*%
G36*
X120441Y139959D02*
X120441Y139959D01*
X114559Y145841D01*
X114559Y147969D01*
X122569Y147969D01*
X122569Y139959D01*
X120441Y139959D01*
G37*
%LPD*%
%LPC*%
G36*
X320441Y272959D02*
X320441Y272959D01*
X314559Y278841D01*
X314559Y280969D01*
X322569Y280969D01*
X322569Y272959D01*
X320441Y272959D01*
G37*
%LPD*%
%LPC*%
G36*
X222031Y292831D02*
X222031Y292831D01*
X222031Y300491D01*
X224014Y300491D01*
X229691Y294814D01*
X229691Y292831D01*
X222031Y292831D01*
G37*
%LPD*%
%LPC*%
G36*
X252031Y292831D02*
X252031Y292831D01*
X252031Y300491D01*
X254014Y300491D01*
X259691Y294814D01*
X259691Y292831D01*
X252031Y292831D01*
G37*
%LPD*%
%LPC*%
G36*
X112031Y191231D02*
X112031Y191231D01*
X112031Y198891D01*
X114014Y198891D01*
X119691Y193214D01*
X119691Y191231D01*
X112031Y191231D01*
G37*
%LPD*%
%LPC*%
G36*
X252031Y281109D02*
X252031Y281109D01*
X252031Y288769D01*
X259691Y288769D01*
X259691Y286786D01*
X254014Y281109D01*
X252031Y281109D01*
G37*
%LPD*%
%LPC*%
G36*
X210309Y292831D02*
X210309Y292831D01*
X210309Y294814D01*
X215986Y300491D01*
X217969Y300491D01*
X217969Y292831D01*
X210309Y292831D01*
G37*
%LPD*%
%LPC*%
G36*
X240309Y292831D02*
X240309Y292831D01*
X240309Y294814D01*
X245986Y300491D01*
X247969Y300491D01*
X247969Y292831D01*
X240309Y292831D01*
G37*
%LPD*%
%LPC*%
G36*
X100309Y191231D02*
X100309Y191231D01*
X100309Y193214D01*
X105986Y198891D01*
X107969Y198891D01*
X107969Y191231D01*
X100309Y191231D01*
G37*
%LPD*%
%LPC*%
G36*
X112031Y179509D02*
X112031Y179509D01*
X112031Y187169D01*
X119691Y187169D01*
X119691Y185186D01*
X114014Y179509D01*
X112031Y179509D01*
G37*
%LPD*%
%LPC*%
G36*
X222031Y281109D02*
X222031Y281109D01*
X222031Y288769D01*
X229691Y288769D01*
X229691Y286786D01*
X224014Y281109D01*
X222031Y281109D01*
G37*
%LPD*%
%LPC*%
G36*
X215986Y281109D02*
X215986Y281109D01*
X210309Y286786D01*
X210309Y288769D01*
X217969Y288769D01*
X217969Y281109D01*
X215986Y281109D01*
G37*
%LPD*%
%LPC*%
G36*
X245986Y281109D02*
X245986Y281109D01*
X240309Y286786D01*
X240309Y288769D01*
X247969Y288769D01*
X247969Y281109D01*
X245986Y281109D01*
G37*
%LPD*%
%LPC*%
G36*
X105986Y179509D02*
X105986Y179509D01*
X100309Y185186D01*
X100309Y187169D01*
X107969Y187169D01*
X107969Y179509D01*
X105986Y179509D01*
G37*
%LPD*%
%LPC*%
G36*
X315239Y377939D02*
X315239Y377939D01*
X315239Y385561D01*
X316909Y385561D01*
X322861Y379609D01*
X322861Y377939D01*
X315239Y377939D01*
G37*
%LPD*%
%LPC*%
G36*
X289839Y377939D02*
X289839Y377939D01*
X289839Y385561D01*
X291509Y385561D01*
X297461Y379609D01*
X297461Y377939D01*
X289839Y377939D01*
G37*
%LPD*%
%LPC*%
G36*
X515239Y377939D02*
X515239Y377939D01*
X515239Y385561D01*
X516909Y385561D01*
X522861Y379609D01*
X522861Y377939D01*
X515239Y377939D01*
G37*
%LPD*%
%LPC*%
G36*
X489839Y377939D02*
X489839Y377939D01*
X489839Y385561D01*
X491509Y385561D01*
X497461Y379609D01*
X497461Y377939D01*
X489839Y377939D01*
G37*
%LPD*%
%LPC*%
G36*
X389839Y377939D02*
X389839Y377939D01*
X389839Y385561D01*
X391509Y385561D01*
X397461Y379609D01*
X397461Y377939D01*
X389839Y377939D01*
G37*
%LPD*%
%LPC*%
G36*
X189839Y377939D02*
X189839Y377939D01*
X189839Y385561D01*
X191509Y385561D01*
X197461Y379609D01*
X197461Y377939D01*
X189839Y377939D01*
G37*
%LPD*%
%LPC*%
G36*
X415239Y377939D02*
X415239Y377939D01*
X415239Y385561D01*
X416909Y385561D01*
X422861Y379609D01*
X422861Y377939D01*
X415239Y377939D01*
G37*
%LPD*%
%LPC*%
G36*
X215239Y377939D02*
X215239Y377939D01*
X215239Y385561D01*
X216909Y385561D01*
X222861Y379609D01*
X222861Y377939D01*
X215239Y377939D01*
G37*
%LPD*%
%LPC*%
G36*
X202539Y377939D02*
X202539Y377939D01*
X202539Y379609D01*
X208491Y385561D01*
X210161Y385561D01*
X210161Y377939D01*
X202539Y377939D01*
G37*
%LPD*%
%LPC*%
G36*
X415239Y365239D02*
X415239Y365239D01*
X415239Y372861D01*
X422861Y372861D01*
X422861Y371191D01*
X416909Y365239D01*
X415239Y365239D01*
G37*
%LPD*%
%LPC*%
G36*
X515239Y365239D02*
X515239Y365239D01*
X515239Y372861D01*
X522861Y372861D01*
X522861Y371191D01*
X516909Y365239D01*
X515239Y365239D01*
G37*
%LPD*%
%LPC*%
G36*
X289839Y365239D02*
X289839Y365239D01*
X289839Y372861D01*
X297461Y372861D01*
X297461Y371191D01*
X291509Y365239D01*
X289839Y365239D01*
G37*
%LPD*%
%LPC*%
G36*
X189839Y365239D02*
X189839Y365239D01*
X189839Y372861D01*
X197461Y372861D01*
X197461Y371191D01*
X191509Y365239D01*
X189839Y365239D01*
G37*
%LPD*%
%LPC*%
G36*
X402539Y377939D02*
X402539Y377939D01*
X402539Y379609D01*
X408491Y385561D01*
X410161Y385561D01*
X410161Y377939D01*
X402539Y377939D01*
G37*
%LPD*%
%LPC*%
G36*
X489839Y365239D02*
X489839Y365239D01*
X489839Y372861D01*
X497461Y372861D01*
X497461Y371191D01*
X491509Y365239D01*
X489839Y365239D01*
G37*
%LPD*%
%LPC*%
G36*
X277139Y377939D02*
X277139Y377939D01*
X277139Y379609D01*
X283091Y385561D01*
X284761Y385561D01*
X284761Y377939D01*
X277139Y377939D01*
G37*
%LPD*%
%LPC*%
G36*
X215239Y365239D02*
X215239Y365239D01*
X215239Y372861D01*
X222861Y372861D01*
X222861Y371191D01*
X216909Y365239D01*
X215239Y365239D01*
G37*
%LPD*%
%LPC*%
G36*
X315239Y365239D02*
X315239Y365239D01*
X315239Y372861D01*
X322861Y372861D01*
X322861Y371191D01*
X316909Y365239D01*
X315239Y365239D01*
G37*
%LPD*%
%LPC*%
G36*
X502539Y377939D02*
X502539Y377939D01*
X502539Y379609D01*
X508491Y385561D01*
X510161Y385561D01*
X510161Y377939D01*
X502539Y377939D01*
G37*
%LPD*%
%LPC*%
G36*
X302539Y377939D02*
X302539Y377939D01*
X302539Y379609D01*
X308491Y385561D01*
X310161Y385561D01*
X310161Y377939D01*
X302539Y377939D01*
G37*
%LPD*%
%LPC*%
G36*
X177139Y377939D02*
X177139Y377939D01*
X177139Y379609D01*
X183091Y385561D01*
X184761Y385561D01*
X184761Y377939D01*
X177139Y377939D01*
G37*
%LPD*%
%LPC*%
G36*
X377139Y377939D02*
X377139Y377939D01*
X377139Y379609D01*
X383091Y385561D01*
X384761Y385561D01*
X384761Y377939D01*
X377139Y377939D01*
G37*
%LPD*%
%LPC*%
G36*
X389839Y365239D02*
X389839Y365239D01*
X389839Y372861D01*
X397461Y372861D01*
X397461Y371191D01*
X391509Y365239D01*
X389839Y365239D01*
G37*
%LPD*%
%LPC*%
G36*
X477139Y377939D02*
X477139Y377939D01*
X477139Y379609D01*
X483091Y385561D01*
X484761Y385561D01*
X484761Y377939D01*
X477139Y377939D01*
G37*
%LPD*%
%LPC*%
G36*
X208491Y365239D02*
X208491Y365239D01*
X202539Y371191D01*
X202539Y372861D01*
X210161Y372861D01*
X210161Y365239D01*
X208491Y365239D01*
G37*
%LPD*%
%LPC*%
G36*
X283091Y365239D02*
X283091Y365239D01*
X277139Y371191D01*
X277139Y372861D01*
X284761Y372861D01*
X284761Y365239D01*
X283091Y365239D01*
G37*
%LPD*%
%LPC*%
G36*
X183091Y365239D02*
X183091Y365239D01*
X177139Y371191D01*
X177139Y372861D01*
X184761Y372861D01*
X184761Y365239D01*
X183091Y365239D01*
G37*
%LPD*%
%LPC*%
G36*
X408491Y365239D02*
X408491Y365239D01*
X402539Y371191D01*
X402539Y372861D01*
X410161Y372861D01*
X410161Y365239D01*
X408491Y365239D01*
G37*
%LPD*%
%LPC*%
G36*
X483091Y365239D02*
X483091Y365239D01*
X477139Y371191D01*
X477139Y372861D01*
X484761Y372861D01*
X484761Y365239D01*
X483091Y365239D01*
G37*
%LPD*%
%LPC*%
G36*
X308491Y365239D02*
X308491Y365239D01*
X302539Y371191D01*
X302539Y372861D01*
X310161Y372861D01*
X310161Y365239D01*
X308491Y365239D01*
G37*
%LPD*%
%LPC*%
G36*
X383091Y365239D02*
X383091Y365239D01*
X377139Y371191D01*
X377139Y372861D01*
X384761Y372861D01*
X384761Y365239D01*
X383091Y365239D01*
G37*
%LPD*%
%LPC*%
G36*
X508491Y365239D02*
X508491Y365239D01*
X502539Y371191D01*
X502539Y372861D01*
X510161Y372861D01*
X510161Y365239D01*
X508491Y365239D01*
G37*
%LPD*%
%LPC*%
G36*
X669999Y287499D02*
X669999Y287499D01*
X669999Y287501D01*
X670001Y287501D01*
X670001Y287499D01*
X669999Y287499D01*
G37*
%LPD*%
%LPC*%
G36*
X29999Y217499D02*
X29999Y217499D01*
X29999Y217501D01*
X30001Y217501D01*
X30001Y217499D01*
X29999Y217499D01*
G37*
%LPD*%
%LPC*%
G36*
X29999Y182499D02*
X29999Y182499D01*
X29999Y182501D01*
X30001Y182501D01*
X30001Y182499D01*
X29999Y182499D01*
G37*
%LPD*%
D10*
X288600Y148000D03*
X339400Y148000D03*
D11*
X670000Y287500D03*
X670000Y252500D03*
X670000Y217500D03*
X670000Y182500D03*
X217500Y30000D03*
X182500Y30000D03*
X317500Y30000D03*
X282500Y30000D03*
X417500Y30000D03*
X382500Y30000D03*
X517500Y30000D03*
X482500Y30000D03*
D12*
X175400Y150000D03*
X124600Y150000D03*
D13*
X99200Y120000D03*
X200800Y120000D03*
D14*
X152220Y265400D02*
X136980Y265400D01*
X136980Y240000D02*
X152220Y240000D01*
X152220Y214600D02*
X136980Y214600D01*
D15*
X190000Y290800D03*
X190000Y189200D03*
D12*
X375400Y283000D03*
X324600Y283000D03*
D16*
X110000Y189200D03*
X110000Y290800D03*
D17*
X250000Y290800D03*
X250000Y189200D03*
X220000Y290800D03*
X220000Y189200D03*
D11*
X30000Y252500D03*
X30000Y287500D03*
X30000Y182500D03*
X30000Y217500D03*
D18*
X187300Y375400D03*
X212700Y375400D03*
X187300Y350000D03*
X212700Y350000D03*
X187300Y324600D03*
X212700Y324600D03*
X287300Y375400D03*
X312700Y375400D03*
X287300Y350000D03*
X312700Y350000D03*
X287300Y324600D03*
X312700Y324600D03*
X387300Y375400D03*
X412700Y375400D03*
X387300Y350000D03*
X412700Y350000D03*
X387300Y324600D03*
X412700Y324600D03*
X487300Y375400D03*
X512700Y375400D03*
X487300Y350000D03*
X512700Y350000D03*
X487300Y324600D03*
X512700Y324600D03*
D19*
X283000Y195700D03*
D20*
X283000Y170300D03*
D12*
X565400Y190000D03*
X514600Y190000D03*
X411400Y148000D03*
X360600Y148000D03*
D13*
X499200Y160000D03*
X600800Y160000D03*
D19*
X463000Y199700D03*
D20*
X463000Y174300D03*
D21*
X130000Y324300D03*
D20*
X130000Y349700D03*
D21*
X570000Y324300D03*
D20*
X570000Y349700D03*
D22*
X340000Y260000D03*
X360000Y260000D03*
X360000Y240000D03*
X340000Y240000D03*
X340000Y220000D03*
X360000Y220000D03*
X360000Y200000D03*
X340000Y200000D03*
X340000Y180000D03*
X360000Y180000D03*
X394000Y237000D03*
X190000Y240000D03*
X20000Y90000D03*
X40000Y10000D03*
X200000Y10000D03*
X300000Y10000D03*
X400000Y10000D03*
X500000Y10000D03*
X690000Y200000D03*
X690000Y270000D03*
X90000Y380000D03*
X10000Y330000D03*
X10000Y270000D03*
X10000Y200000D03*
X570000Y380000D03*
X620000Y390000D03*
X690000Y340000D03*
X220000Y270000D03*
X250000Y270000D03*
X375000Y153000D03*
X310000Y70000D03*
X340000Y70000D03*
X120000Y110000D03*
X90000Y170000D03*
X140000Y70000D03*
X237000Y367000D03*
X264000Y367000D03*
X437000Y367000D03*
X459000Y367000D03*
X160000Y290000D03*
X140000Y190000D03*
X558000Y336000D03*
X553000Y36000D03*
X628000Y14000D03*
X611000Y64000D03*
X684000Y67000D03*
X678000Y26000D03*
X581000Y221000D03*
X588000Y266000D03*
X581000Y241000D03*
X554000Y246000D03*
X561000Y273000D03*
X477000Y273000D03*
X457000Y270000D03*
X449000Y247000D03*
X438000Y213000D03*
X607000Y359000D03*
X117000Y377000D03*
X20000Y375000D03*
X419000Y52000D03*
X475000Y53000D03*
X525000Y64000D03*
D23*
X250000Y120000D03*
X450000Y120000D03*
X629000Y144000D03*
X673000Y126000D03*
X545000Y80000D03*
X498000Y200000D03*
X190000Y141000D03*
X183000Y168000D03*
X91000Y145000D03*
X48000Y131000D03*
X75000Y96000D03*
X213000Y57000D03*
X432000Y9000D03*
X107000Y310000D03*
X240000Y120000D03*
X250000Y130000D03*
X260000Y120000D03*
X240000Y110000D03*
X250000Y110000D03*
X260000Y110000D03*
X240000Y130000D03*
X260000Y130000D03*
X440000Y130000D03*
X450000Y130000D03*
X460000Y130000D03*
X460000Y120000D03*
X440000Y120000D03*
X440000Y110000D03*
X450000Y110000D03*
X460000Y110000D03*
D22*
X341000Y126000D03*
X614000Y328000D03*
X661000Y388000D03*
X470000Y245000D03*
X498000Y286000D03*
X583000Y190000D03*
X682000Y97000D03*
X411000Y122000D03*
X216000Y117000D03*
X107000Y95000D03*
X377000Y62000D03*
X542000Y13000D03*
X545000Y318000D03*
X546000Y388000D03*
X235000Y337000D03*
X361000Y338000D03*
X146000Y387000D03*
X87000Y340000D03*
X40000Y389000D03*
X267000Y68000D03*
D24*
X267000Y78000D01*
X291000Y78000D01*
X292000Y79000D01*
D22*
X292000Y79000D03*
X234000Y67000D03*
D24*
X259000Y92000D01*
X270000Y92000D01*
D22*
X285000Y89000D03*
D24*
X270096Y92096D02*
X270000Y92000D01*
X281904Y92096D02*
X285000Y89000D01*
X281904Y92096D02*
X270096Y92096D01*
D25*
X463000Y174300D02*
X484900Y174300D01*
X498182Y161018D01*
X498961Y161018D01*
D23*
X309000Y177000D03*
D24*
X308000Y177000D01*
X290000Y159000D01*
X284000Y159000D01*
X278000Y153000D02*
X278000Y137000D01*
D23*
X278000Y137000D03*
D24*
X278000Y153000D02*
X284000Y159000D01*
D23*
X308624Y188000D03*
D24*
X267000Y170000D02*
X267000Y137107D01*
X267000Y170000D02*
X267000Y171000D01*
X267000Y137107D02*
X267533Y136574D01*
D23*
X267533Y136574D03*
D24*
X303720Y183096D02*
X308624Y188000D01*
X303720Y183096D02*
X279096Y183096D01*
X267000Y171000D01*
X267000Y170000D01*
D23*
X253000Y202000D03*
D24*
X247000Y202000D01*
D23*
X233468Y137574D03*
D24*
X239802Y194802D02*
X247000Y202000D01*
X239802Y143909D02*
X233468Y137574D01*
X239802Y143909D02*
X239802Y194802D01*
D23*
X221000Y137000D03*
D24*
X227000Y143000D01*
X227000Y160000D01*
D23*
X241000Y209000D03*
D24*
X227000Y162000D02*
X227000Y160000D01*
X233000Y201000D02*
X241000Y209000D01*
X233000Y168000D02*
X227000Y162000D01*
X233000Y168000D02*
X233000Y201000D01*
X302858Y230858D02*
X302858Y240000D01*
D22*
X302858Y240000D03*
D24*
X302858Y230858D02*
X281000Y209000D01*
X269800Y209000D01*
X250000Y189200D01*
D22*
X296000Y255000D03*
D24*
X296000Y234000D01*
X278000Y216000D01*
D22*
X278000Y216000D03*
X402000Y259000D03*
D24*
X425004Y259000D01*
X443004Y277000D01*
D22*
X443004Y277000D03*
X436146Y257000D03*
D24*
X425146Y246000D01*
X404142Y246000D01*
D22*
X404142Y246000D03*
D23*
X431000Y165000D03*
D24*
X419000Y177000D01*
X407000Y177000D01*
D23*
X407000Y177000D03*
X441000Y165000D03*
D24*
X422000Y184000D01*
X415000Y184000D01*
D23*
X415000Y184000D03*
X463000Y67000D03*
D24*
X460000Y70000D01*
X460000Y87000D01*
X469000Y96000D01*
X484000Y96000D01*
D22*
X484000Y96000D03*
D23*
X434000Y65000D03*
D24*
X440000Y71000D01*
X440000Y86000D01*
D22*
X484000Y105144D03*
D24*
X462816Y103202D02*
X457202Y103202D01*
X462816Y103202D02*
X464758Y105144D01*
X484000Y105144D01*
X457202Y103202D02*
X440000Y86000D01*
M02*
