G04 EAGLE Gerber RS-274X export*
G75*
%MOMM*%
%FSLAX34Y34*%
%LPD*%
%IN*%
%IPPOS*%
%AMOC8*
5,1,8,0,0,1.08239X$1,22.5*%
G01*
%ADD10C,0.254000*%


D10*
X0Y30000D02*
X30000Y0D01*
X670000Y0D01*
X700000Y30000D01*
X700000Y370000D01*
X670000Y400000D01*
X30000Y400000D01*
X0Y370000D01*
X0Y30000D01*
X66250Y349468D02*
X66180Y348406D01*
X66042Y347352D01*
X65834Y346308D01*
X65559Y345280D01*
X65217Y344273D01*
X64809Y343290D01*
X64339Y342336D01*
X63807Y341414D01*
X63216Y340530D01*
X62568Y339686D01*
X61867Y338886D01*
X61114Y338133D01*
X60314Y337432D01*
X59470Y336784D01*
X58586Y336193D01*
X57664Y335661D01*
X56710Y335191D01*
X55727Y334783D01*
X54720Y334441D01*
X53692Y334166D01*
X52648Y333958D01*
X51594Y333820D01*
X50532Y333750D01*
X49468Y333750D01*
X48406Y333820D01*
X47352Y333958D01*
X46308Y334166D01*
X45280Y334441D01*
X44273Y334783D01*
X43290Y335191D01*
X42336Y335661D01*
X41414Y336193D01*
X40530Y336784D01*
X39686Y337432D01*
X38886Y338133D01*
X38133Y338886D01*
X37432Y339686D01*
X36784Y340530D01*
X36193Y341414D01*
X35661Y342336D01*
X35191Y343290D01*
X34783Y344273D01*
X34441Y345280D01*
X34166Y346308D01*
X33958Y347352D01*
X33820Y348406D01*
X33750Y349468D01*
X33750Y350532D01*
X33820Y351594D01*
X33958Y352648D01*
X34166Y353692D01*
X34441Y354720D01*
X34783Y355727D01*
X35191Y356710D01*
X35661Y357664D01*
X36193Y358586D01*
X36784Y359470D01*
X37432Y360314D01*
X38133Y361114D01*
X38886Y361867D01*
X39686Y362568D01*
X40530Y363216D01*
X41414Y363807D01*
X42336Y364339D01*
X43290Y364809D01*
X44273Y365217D01*
X45280Y365559D01*
X46308Y365834D01*
X47352Y366042D01*
X48406Y366180D01*
X49468Y366250D01*
X50532Y366250D01*
X51594Y366180D01*
X52648Y366042D01*
X53692Y365834D01*
X54720Y365559D01*
X55727Y365217D01*
X56710Y364809D01*
X57664Y364339D01*
X58586Y363807D01*
X59470Y363216D01*
X60314Y362568D01*
X61114Y361867D01*
X61867Y361114D01*
X62568Y360314D01*
X63216Y359470D01*
X63807Y358586D01*
X64339Y357664D01*
X64809Y356710D01*
X65217Y355727D01*
X65559Y354720D01*
X65834Y353692D01*
X66042Y352648D01*
X66180Y351594D01*
X66250Y350532D01*
X66250Y349468D01*
X66250Y49468D02*
X66180Y48406D01*
X66042Y47352D01*
X65834Y46308D01*
X65559Y45280D01*
X65217Y44273D01*
X64809Y43290D01*
X64339Y42336D01*
X63807Y41414D01*
X63216Y40530D01*
X62568Y39686D01*
X61867Y38886D01*
X61114Y38133D01*
X60314Y37432D01*
X59470Y36784D01*
X58586Y36193D01*
X57664Y35661D01*
X56710Y35191D01*
X55727Y34783D01*
X54720Y34441D01*
X53692Y34166D01*
X52648Y33958D01*
X51594Y33820D01*
X50532Y33750D01*
X49468Y33750D01*
X48406Y33820D01*
X47352Y33958D01*
X46308Y34166D01*
X45280Y34441D01*
X44273Y34783D01*
X43290Y35191D01*
X42336Y35661D01*
X41414Y36193D01*
X40530Y36784D01*
X39686Y37432D01*
X38886Y38133D01*
X38133Y38886D01*
X37432Y39686D01*
X36784Y40530D01*
X36193Y41414D01*
X35661Y42336D01*
X35191Y43290D01*
X34783Y44273D01*
X34441Y45280D01*
X34166Y46308D01*
X33958Y47352D01*
X33820Y48406D01*
X33750Y49468D01*
X33750Y50532D01*
X33820Y51594D01*
X33958Y52648D01*
X34166Y53692D01*
X34441Y54720D01*
X34783Y55727D01*
X35191Y56710D01*
X35661Y57664D01*
X36193Y58586D01*
X36784Y59470D01*
X37432Y60314D01*
X38133Y61114D01*
X38886Y61867D01*
X39686Y62568D01*
X40530Y63216D01*
X41414Y63807D01*
X42336Y64339D01*
X43290Y64809D01*
X44273Y65217D01*
X45280Y65559D01*
X46308Y65834D01*
X47352Y66042D01*
X48406Y66180D01*
X49468Y66250D01*
X50532Y66250D01*
X51594Y66180D01*
X52648Y66042D01*
X53692Y65834D01*
X54720Y65559D01*
X55727Y65217D01*
X56710Y64809D01*
X57664Y64339D01*
X58586Y63807D01*
X59470Y63216D01*
X60314Y62568D01*
X61114Y61867D01*
X61867Y61114D01*
X62568Y60314D01*
X63216Y59470D01*
X63807Y58586D01*
X64339Y57664D01*
X64809Y56710D01*
X65217Y55727D01*
X65559Y54720D01*
X65834Y53692D01*
X66042Y52648D01*
X66180Y51594D01*
X66250Y50532D01*
X66250Y49468D01*
X666250Y49468D02*
X666180Y48406D01*
X666042Y47352D01*
X665834Y46308D01*
X665559Y45280D01*
X665217Y44273D01*
X664809Y43290D01*
X664339Y42336D01*
X663807Y41414D01*
X663216Y40530D01*
X662568Y39686D01*
X661867Y38886D01*
X661114Y38133D01*
X660314Y37432D01*
X659470Y36784D01*
X658586Y36193D01*
X657664Y35661D01*
X656710Y35191D01*
X655727Y34783D01*
X654720Y34441D01*
X653692Y34166D01*
X652648Y33958D01*
X651594Y33820D01*
X650532Y33750D01*
X649468Y33750D01*
X648406Y33820D01*
X647352Y33958D01*
X646308Y34166D01*
X645280Y34441D01*
X644273Y34783D01*
X643290Y35191D01*
X642336Y35661D01*
X641414Y36193D01*
X640530Y36784D01*
X639686Y37432D01*
X638886Y38133D01*
X638133Y38886D01*
X637432Y39686D01*
X636784Y40530D01*
X636193Y41414D01*
X635661Y42336D01*
X635191Y43290D01*
X634783Y44273D01*
X634441Y45280D01*
X634166Y46308D01*
X633958Y47352D01*
X633820Y48406D01*
X633750Y49468D01*
X633750Y50532D01*
X633820Y51594D01*
X633958Y52648D01*
X634166Y53692D01*
X634441Y54720D01*
X634783Y55727D01*
X635191Y56710D01*
X635661Y57664D01*
X636193Y58586D01*
X636784Y59470D01*
X637432Y60314D01*
X638133Y61114D01*
X638886Y61867D01*
X639686Y62568D01*
X640530Y63216D01*
X641414Y63807D01*
X642336Y64339D01*
X643290Y64809D01*
X644273Y65217D01*
X645280Y65559D01*
X646308Y65834D01*
X647352Y66042D01*
X648406Y66180D01*
X649468Y66250D01*
X650532Y66250D01*
X651594Y66180D01*
X652648Y66042D01*
X653692Y65834D01*
X654720Y65559D01*
X655727Y65217D01*
X656710Y64809D01*
X657664Y64339D01*
X658586Y63807D01*
X659470Y63216D01*
X660314Y62568D01*
X661114Y61867D01*
X661867Y61114D01*
X662568Y60314D01*
X663216Y59470D01*
X663807Y58586D01*
X664339Y57664D01*
X664809Y56710D01*
X665217Y55727D01*
X665559Y54720D01*
X665834Y53692D01*
X666042Y52648D01*
X666180Y51594D01*
X666250Y50532D01*
X666250Y49468D01*
X666250Y349468D02*
X666180Y348406D01*
X666042Y347352D01*
X665834Y346308D01*
X665559Y345280D01*
X665217Y344273D01*
X664809Y343290D01*
X664339Y342336D01*
X663807Y341414D01*
X663216Y340530D01*
X662568Y339686D01*
X661867Y338886D01*
X661114Y338133D01*
X660314Y337432D01*
X659470Y336784D01*
X658586Y336193D01*
X657664Y335661D01*
X656710Y335191D01*
X655727Y334783D01*
X654720Y334441D01*
X653692Y334166D01*
X652648Y333958D01*
X651594Y333820D01*
X650532Y333750D01*
X649468Y333750D01*
X648406Y333820D01*
X647352Y333958D01*
X646308Y334166D01*
X645280Y334441D01*
X644273Y334783D01*
X643290Y335191D01*
X642336Y335661D01*
X641414Y336193D01*
X640530Y336784D01*
X639686Y337432D01*
X638886Y338133D01*
X638133Y338886D01*
X637432Y339686D01*
X636784Y340530D01*
X636193Y341414D01*
X635661Y342336D01*
X635191Y343290D01*
X634783Y344273D01*
X634441Y345280D01*
X634166Y346308D01*
X633958Y347352D01*
X633820Y348406D01*
X633750Y349468D01*
X633750Y350532D01*
X633820Y351594D01*
X633958Y352648D01*
X634166Y353692D01*
X634441Y354720D01*
X634783Y355727D01*
X635191Y356710D01*
X635661Y357664D01*
X636193Y358586D01*
X636784Y359470D01*
X637432Y360314D01*
X638133Y361114D01*
X638886Y361867D01*
X639686Y362568D01*
X640530Y363216D01*
X641414Y363807D01*
X642336Y364339D01*
X643290Y364809D01*
X644273Y365217D01*
X645280Y365559D01*
X646308Y365834D01*
X647352Y366042D01*
X648406Y366180D01*
X649468Y366250D01*
X650532Y366250D01*
X651594Y366180D01*
X652648Y366042D01*
X653692Y365834D01*
X654720Y365559D01*
X655727Y365217D01*
X656710Y364809D01*
X657664Y364339D01*
X658586Y363807D01*
X659470Y363216D01*
X660314Y362568D01*
X661114Y361867D01*
X661867Y361114D01*
X662568Y360314D01*
X663216Y359470D01*
X663807Y358586D01*
X664339Y357664D01*
X664809Y356710D01*
X665217Y355727D01*
X665559Y354720D01*
X665834Y353692D01*
X666042Y352648D01*
X666180Y351594D01*
X666250Y350532D01*
X666250Y349468D01*
M02*
